<svg width="43" height="43" viewBox="0 0 43 43" fill="none" xmlns="http://www.w3.org/2000/svg">
<ellipse cx="21.3438" cy="21.3437" rx="21.3438" ry="21.3437" fill="#F3F5F7"/>
<g clip-path="url(#clip0_513_3001)">
<path fill-rule="evenodd" clip-rule="evenodd" d="M14.5857 12L12.5857 14H10.9998V16H13.4138L15.9998 13.4141L14.5857 12ZM17.9998 14V16H30.9998V14H17.9998ZM14.5857 18L12.5857 20H10.9998V22H13.4138L15.9998 19.4141L14.5857 18ZM17.9998 20V22H30.9998V20H17.9998ZM14.5857 24L12.5857 26H10.9998V28H13.4138L15.9998 25.4141L14.5857 24ZM17.9998 26V28H30.9998V26H17.9998Z" fill="#1E2022"/>
</g>
<defs>
<clipPath id="clip0_513_3001">
<rect width="24" height="24" fill="white" transform="translate(9 9)"/>
</clipPath>
</defs>
</svg>