<svg width="121" height="25" viewBox="0 0 121 25" fill="none" xmlns="http://www.w3.org/2000/svg">
<path d="M44.3802 16.3475C43.8851 17.0236 43.2343 17.571 42.4422 17.9925C41.6501 18.4126 40.6882 18.6233 39.5708 18.6233C38.6089 18.6233 37.7321 18.4607 36.9259 18.1339C36.1055 17.8086 35.4124 17.3517 34.8183 16.7647C34.2384 16.1777 33.7716 15.4789 33.4463 14.667C33.1068 13.8551 32.9511 12.9626 32.9511 11.9908C32.9511 11.0064 33.1068 10.1082 33.4463 9.29626C33.7858 8.48435 34.2526 7.79125 34.8608 7.21556C35.4549 6.64128 36.1621 6.19292 36.9825 5.87325C37.8029 5.55358 38.6939 5.39233 39.6416 5.39233C40.08 5.39233 40.5046 5.43474 40.9431 5.51678C41.3816 5.60024 41.8058 5.72472 42.2018 5.89022C42.612 6.05712 42.9798 6.2608 43.3052 6.50409C43.6447 6.74738 43.9274 7.02888 44.1678 7.34855L42.7817 8.41645C42.4705 7.98927 42.0321 7.63709 41.4663 7.35844C40.9146 7.07978 40.3064 6.93976 39.6416 6.93976C38.906 6.93976 38.2555 7.07271 37.6614 7.34005C37.0815 7.60738 36.5722 7.97092 36.162 8.43345C35.7518 8.89599 35.4266 9.43208 35.2003 10.0431C34.9739 10.6542 34.8608 11.3034 34.8608 11.9908C34.8608 12.7023 34.9739 13.3657 35.1861 13.9825C35.4124 14.5992 35.7235 15.1353 36.1337 15.5921C36.5439 16.0476 37.039 16.4068 37.6331 16.6671C38.213 16.9288 38.8777 17.0589 39.5991 17.0589C40.3063 17.0589 40.9571 16.9161 41.5371 16.6318C42.117 16.3474 42.598 15.933 42.9799 15.387L44.3802 16.3475Z" fill="#080A0C"/>
<path d="M53.8419 14.0662C53.8419 14.7183 53.7287 15.3166 53.5024 15.8612C53.2761 16.4072 52.9509 16.8782 52.5407 17.2757C52.1305 17.6731 51.6495 17.9815 51.0979 18.2007C50.5321 18.42 49.938 18.5289 49.3015 18.5289C48.6508 18.5289 48.0567 18.42 47.505 18.2007C46.9393 17.9815 46.4583 17.6731 46.0623 17.2757C45.6521 16.8782 45.341 16.4072 45.1147 15.8612C44.8742 15.3166 44.761 14.7183 44.761 14.0662C44.761 13.4141 44.8742 12.8172 45.1147 12.2783C45.341 11.7394 45.6521 11.274 46.0623 10.8822C46.4583 10.4918 46.9393 10.1863 47.505 9.96703C48.0567 9.74778 48.6508 9.63745 49.3015 9.63745C49.938 9.63745 50.5321 9.74778 51.0979 9.96703C51.6495 10.1863 52.1305 10.4918 52.5407 10.8822C52.9509 11.274 53.2761 11.7394 53.5024 12.2783C53.7287 12.8172 53.8419 13.4141 53.8419 14.0662ZM52.1021 14.0662C52.1021 13.6631 52.0457 13.2769 51.9184 12.9092C51.7911 12.5428 51.607 12.2189 51.3807 11.9403C51.1402 11.6616 50.8434 11.4395 50.5039 11.274C50.1503 11.1071 49.7541 11.0251 49.3015 11.0251C48.8488 11.0251 48.4526 11.1071 48.099 11.274C47.7454 11.4395 47.4485 11.6616 47.2081 11.9403C46.9817 12.2189 46.7977 12.5428 46.6704 12.9092C46.5431 13.2769 46.4867 13.6631 46.4867 14.0662C46.4867 14.4693 46.5431 14.854 46.6704 15.2218C46.7977 15.5896 46.9817 15.9149 47.2081 16.1992C47.4485 16.4835 47.7454 16.7098 48.099 16.8753C48.4526 17.0408 48.8488 17.1243 49.3015 17.1243C49.7541 17.1243 50.1503 17.0408 50.5039 16.8753C50.8434 16.7098 51.1402 16.4835 51.3807 16.1992C51.607 15.9149 51.7911 15.5896 51.9184 15.2218C52.0457 14.854 52.1021 14.4693 52.1021 14.0662Z" fill="#080A0C"/>
<path d="M56.99 11.2554C57.2022 10.8056 57.5416 10.4223 58.0084 10.1082C58.4752 9.79423 59.0412 9.63721 59.6777 9.63721C60.2435 9.63721 60.7525 9.76735 61.2193 10.029C61.6719 10.2893 62.0256 10.7221 62.2943 11.3275C62.5772 10.7815 62.9734 10.3643 63.4826 10.0729C63.9918 9.78292 64.5434 9.63721 65.1516 9.63721C65.7032 9.63721 66.17 9.72916 66.5519 9.91304C66.948 10.0969 67.2732 10.343 67.542 10.6514C67.7966 10.9598 67.9948 11.3204 68.108 11.7363C68.2353 12.1507 68.3058 12.5949 68.3058 13.0701V18.2981H66.6227V13.6204C66.6227 13.2767 66.5943 12.9513 66.5377 12.643C66.4812 12.3346 66.3822 12.0616 66.2408 11.8254C66.0993 11.5878 65.9014 11.3982 65.6751 11.2554C65.4346 11.1139 65.1233 11.0418 64.7555 11.0418C64.3877 11.0418 64.0625 11.1224 63.7796 11.2823C63.5108 11.4421 63.2846 11.65 63.1148 11.9046C62.9451 12.1592 62.8178 12.4478 62.747 12.7675C62.6622 13.0871 62.6196 13.4139 62.6196 13.7449V18.2981H60.9506V13.2823C60.9506 12.9513 60.9223 12.6486 60.8657 12.3756C60.8091 12.1026 60.7101 11.8693 60.5687 11.6741C60.4272 11.4774 60.2435 11.3233 60.0172 11.2115C59.7909 11.0984 59.5079 11.0418 59.1825 11.0418C58.5602 11.0418 58.0508 11.2936 57.6406 11.7986C57.2304 12.3021 57.0183 12.9754 57.0183 13.817V18.2981H55.3494V11.6826C55.3494 11.4577 55.3493 11.1663 55.3352 10.8112C55.3211 10.4548 55.3069 10.1408 55.2786 9.86918H56.8629C56.8912 10.0814 56.9051 10.3218 56.9192 10.5892C56.9334 10.8551 56.9334 11.0772 56.9334 11.2554H56.99Z" fill="#080A0C"/>
<path d="M71.9726 11.2556C72.1847 10.8058 72.5242 10.4225 72.991 10.1085C73.4577 9.79447 74.0093 9.63745 74.6458 9.63745C75.2257 9.63745 75.7351 9.76759 76.1877 10.0293C76.6403 10.2895 77.0081 10.7224 77.2627 11.3278C77.5456 10.7818 77.9418 10.3645 78.451 10.0731C78.9743 9.78316 79.5259 9.63745 80.1341 9.63745C80.6716 9.63745 81.1384 9.7294 81.5344 9.91328C81.9305 10.0972 82.2557 10.3433 82.5104 10.6516C82.7791 10.96 82.9629 11.3207 83.0902 11.7365C83.2175 12.151 83.2742 12.5951 83.2742 13.0704V18.2983H81.6052V13.6206C81.6052 13.2769 81.5769 12.9516 81.5203 12.6432C81.4496 12.3349 81.3506 12.0619 81.2091 11.8256C81.0677 11.588 80.8836 11.3985 80.6431 11.2556C80.4027 11.1142 80.1058 11.042 79.738 11.042C79.3561 11.042 79.0309 11.1227 78.7621 11.2825C78.4792 11.4424 78.2671 11.6502 78.0974 11.9049C77.9135 12.1595 77.8003 12.448 77.7154 12.7677C77.6447 13.0874 77.6022 13.4141 77.6022 13.7451V18.2983H75.9332V13.2826C75.9332 12.9516 75.9048 12.6489 75.8482 12.3759C75.7775 12.1029 75.6785 11.8695 75.5371 11.6743C75.3956 11.4777 75.2116 11.3235 74.9852 11.2118C74.7589 11.0986 74.4904 11.042 74.1509 11.042C73.5427 11.042 73.0192 11.2938 72.609 11.7988C72.1988 12.3023 72.0009 12.9756 72.0009 13.8173V18.2983H70.3316V11.6828C70.3316 11.4579 70.3319 11.1665 70.3177 10.8115C70.3036 10.455 70.2894 10.141 70.2611 9.86943H71.8451C71.8593 10.0816 71.8876 10.3221 71.9018 10.5894C71.9018 10.8553 71.9159 11.0774 71.9159 11.2556H71.9726Z" fill="#080A0C"/>
<path d="M91.1966 18.3015C91.1825 18.0879 91.1683 17.8474 91.1542 17.5815C91.14 17.3141 91.1262 17.0921 91.1262 16.9138H91.0979C90.8857 17.365 90.5179 17.747 90.0229 18.061C89.5137 18.375 88.9617 18.532 88.3394 18.532C87.7877 18.532 87.321 18.4429 86.9249 18.2661C86.5288 18.0879 86.2036 17.8418 85.949 17.5277C85.6944 17.2137 85.5106 16.8488 85.3833 16.4343C85.256 16.0185 85.1851 15.5743 85.1851 15.1005V9.87256H86.8686V14.5304C86.8686 14.8756 86.8966 15.2037 86.9391 15.5177C86.9956 15.8318 87.0949 16.1076 87.2364 16.3452C87.3778 16.5815 87.5758 16.7724 87.8304 16.9138C88.0708 17.0567 88.396 17.1274 88.7779 17.1274C89.4569 17.1274 90.0088 16.8756 90.419 16.3721C90.8292 15.8685 91.0412 15.1952 91.0412 14.3536V9.87256H92.7102V16.4867C92.7102 16.713 92.7244 17.003 92.7244 17.358C92.7385 17.7145 92.7669 18.0285 92.781 18.3015H91.1966Z" fill="#080A0C"/>
<path d="M96.3326 9.86943C96.3609 10.0816 96.3751 10.3221 96.3892 10.5894C96.4034 10.8553 96.4176 11.0774 96.4176 11.2556H96.46C96.5732 11.0307 96.7144 10.82 96.8983 10.6248C97.0821 10.4296 97.2942 10.257 97.5347 10.1085C97.7752 9.96138 98.0298 9.8454 98.3127 9.76194C98.5956 9.67849 98.8929 9.63745 99.204 9.63745C99.7415 9.63745 100.222 9.7294 100.604 9.91328C101 10.0972 101.326 10.3433 101.58 10.6516C101.849 10.96 102.033 11.3207 102.16 11.7365C102.287 12.151 102.344 12.5951 102.344 13.0704V18.2983H100.675V13.6206C100.675 13.2769 100.647 12.9516 100.604 12.6432C100.548 12.3349 100.449 12.0619 100.307 11.8256C100.166 11.588 99.9677 11.3985 99.7131 11.2556C99.4726 11.1142 99.1474 11.042 98.7513 11.042C98.1007 11.042 97.5491 11.2938 97.1248 11.7988C96.7146 12.3023 96.5022 12.9756 96.5022 13.8173V18.2983H94.8332V11.6828C94.8332 11.4579 94.819 11.1665 94.8049 10.8115C94.8049 10.455 94.7765 10.141 94.7624 9.86943H96.3326Z" fill="#080A0C"/>
<path d="M106.042 18.2998H104.373V9.8709H106.042V18.2998ZM106.325 6.82978C106.325 7.13813 106.212 7.39275 106 7.59361C105.773 7.79588 105.519 7.89629 105.208 7.89629C104.897 7.89629 104.642 7.79303 104.43 7.5851C104.218 7.37717 104.105 7.1254 104.105 6.82978C104.105 6.52142 104.218 6.26399 104.43 6.05606C104.642 5.84813 104.897 5.74487 105.208 5.74487C105.519 5.74487 105.773 5.84813 106 6.05606C106.212 6.26399 106.325 6.52142 106.325 6.82978Z" fill="#080A0C"/>
<path d="M112.324 11.2367H110.075V15.6286C110.075 16.1379 110.174 16.5028 110.358 16.722C110.556 16.9413 110.853 17.0516 111.263 17.0516C111.419 17.0516 111.588 17.0332 111.758 16.9979C111.942 16.9625 112.097 16.9088 112.239 16.838L112.296 18.2072C112.098 18.278 111.871 18.3346 111.631 18.3756C111.39 18.418 111.136 18.4378 110.881 18.4378C110.075 18.4378 109.481 18.2185 109.056 17.7801C108.632 17.3416 108.42 16.6839 108.42 15.8069V11.2367H106.807V9.86748H108.42V7.44873H110.075V9.86748H112.324V11.2367Z" fill="#080A0C"/>
<path d="M116.462 16.4867H116.504L118.824 9.87256H120.606L116.519 20.293C116.377 20.6481 116.221 20.9663 116.052 21.2436C115.896 21.5222 115.698 21.7599 115.472 21.9551C115.246 22.1517 114.977 22.303 114.68 22.4091C114.368 22.5152 114.015 22.5689 113.605 22.5689C113.421 22.5689 113.237 22.5604 113.053 22.542C112.869 22.5251 112.685 22.4925 112.501 22.4444L112.657 20.9691C112.94 21.0639 113.223 21.1106 113.491 21.1106C113.93 21.1106 114.255 20.989 114.468 20.7457C114.68 20.5038 114.878 20.1558 115.062 19.706L115.599 18.3015L111.978 9.87256H113.845L116.462 16.4867Z" fill="#080A0C"/>
<path fill-rule="evenodd" clip-rule="evenodd" d="M20.7886 19.626C17.1712 23.7122 11.176 24.6855 6.45053 21.9572C1.72278 19.2276 -0.429606 13.5504 1.29815 8.37314L20.7886 19.626Z" fill="#FFA0B5"/>
<path fill-rule="evenodd" clip-rule="evenodd" d="M23.0801 8.37427C24.8102 13.5502 22.6555 19.2288 17.93 21.957C13.2022 24.6866 7.20942 23.712 3.58965 19.6271L23.0801 8.37427Z" fill="#FFA0B5"/>
<path fill-rule="evenodd" clip-rule="evenodd" d="M12.1698 14.6611L20.7668 19.6245C20.3518 20.0928 19.9058 20.5199 19.4342 20.9056C18.9618 21.2909 18.4539 21.6425 17.9122 21.9552C17.4336 22.2315 16.9416 22.4698 16.4399 22.6713C15.084 23.2137 13.6365 23.4923 12.179 23.4941H12.1698H12.1605C10.7034 23.4923 9.25556 23.2137 7.8996 22.6713C7.39797 22.4698 6.90597 22.2315 6.42731 21.9552C5.88566 21.6425 5.37774 21.2909 4.90537 20.9056C4.43375 20.5199 3.98769 20.0928 3.57312 19.6245L12.1698 14.6611Z" fill="#FF2052"/>
<path fill-rule="evenodd" clip-rule="evenodd" d="M12.1969 0.148438C18.74 0.148438 24.0523 5.46079 24.0523 12.0038C24.0523 18.5468 18.74 23.8592 12.1969 23.8592C5.65391 23.8592 0.341553 18.5468 0.341553 12.0038C0.341553 5.46079 5.65391 0.148438 12.1969 0.148438ZM12.1969 1.33398C18.0858 1.33398 22.8668 6.1149 22.8668 12.0038C22.8668 17.8927 18.0858 22.6737 12.1969 22.6737C6.30802 22.6737 1.52708 17.8927 1.52708 12.0038C1.52708 6.1149 6.30802 1.33398 12.1969 1.33398Z" fill="#FF2052"/>
</svg>
