<svg width="73" height="25" viewBox="0 0 73 25" fill="none" xmlns="http://www.w3.org/2000/svg">
<path d="M34.9052 13.9786H34.958L38.4604 10.3363H40.678L36.7708 14.1377L41.0124 18.717H38.7244L34.958 14.3675H34.9052V18.717H33.2508V5.35034H34.9052V13.9786Z" fill="#080A0C"/>
<path d="M46.7855 13.288C46.7855 12.6692 46.5919 12.1918 46.2223 11.8912C45.8527 11.5907 45.3422 11.4492 44.7262 11.4492C44.251 11.4492 43.811 11.5376 43.4062 11.7144C42.9838 11.9089 42.6318 12.1388 42.3502 12.4217L41.4702 11.3608C41.875 10.9718 42.3854 10.6713 42.9838 10.4414C43.5646 10.2116 44.1982 10.1055 44.8846 10.1055C45.483 10.1055 45.9935 10.1939 46.4511 10.353C46.8911 10.5298 47.2431 10.7597 47.5247 11.0602C47.8063 11.3608 48.0175 11.6967 48.1583 12.1034C48.2991 12.5101 48.3695 12.9344 48.3695 13.3941V17.054C48.3695 17.3369 48.3871 17.6375 48.4047 17.9381C48.4047 18.2563 48.4399 18.5215 48.4927 18.716H46.9967C46.9087 18.3094 46.8559 17.9204 46.8559 17.5137H46.8031C46.5039 17.9557 46.1167 18.3094 45.659 18.5569C45.1838 18.8044 44.6382 18.9282 44.0046 18.9282C43.6702 18.9282 43.3358 18.8928 42.9838 18.8044C42.6142 18.716 42.2974 18.5569 41.9982 18.3624C41.699 18.1679 41.4702 17.9027 41.2766 17.5668C41.0654 17.2308 40.9774 16.8242 40.9774 16.3468C40.9774 15.7103 41.1534 15.1975 41.4878 14.8262C41.8222 14.4549 42.2798 14.1721 42.8254 13.9776C43.371 13.7831 44.0046 13.6593 44.691 13.6063C45.3774 13.5532 46.0815 13.5179 46.7855 13.5179V13.288ZM46.3807 14.7202C45.9759 14.7202 45.5534 14.7378 45.1134 14.7732C44.6734 14.8086 44.2686 14.8793 43.9166 14.9854C43.547 15.0915 43.2478 15.2506 43.019 15.4627C42.7902 15.6749 42.667 15.9578 42.667 16.3114C42.667 16.559 42.7198 16.7711 42.8254 16.9303C42.9134 17.0894 43.0542 17.2308 43.2126 17.3369C43.371 17.443 43.5646 17.5137 43.7582 17.5491C43.9518 17.6021 44.163 17.6198 44.3742 17.6198C45.1486 17.6198 45.747 17.39 46.1695 16.9126C46.5743 16.4529 46.7855 15.8694 46.7855 15.1622V14.7202H46.3807Z" fill="#080A0C"/>
<path d="M51.8367 10.3353C51.8543 10.5475 51.8719 10.795 51.8895 11.0426C51.9071 11.3078 51.9071 11.5376 51.9071 11.7144H51.9599C52.0655 11.4846 52.2063 11.2724 52.3999 11.0779C52.5759 10.8834 52.7871 10.7243 53.0159 10.5652C53.2447 10.4237 53.5087 10.3176 53.7903 10.2292C54.072 10.1408 54.3712 10.1055 54.6704 10.1055C55.216 10.1055 55.6736 10.1939 56.0608 10.3707C56.448 10.5652 56.7648 10.8127 57.0288 11.1133C57.2928 11.4138 57.4864 11.7851 57.6096 12.1918C57.7328 12.5985 57.7856 13.0405 57.7856 13.5179V18.716H56.1312V14.066C56.1312 13.73 56.1136 13.3941 56.0608 13.0935C56.008 12.7929 55.9024 12.5101 55.7616 12.2802C55.6208 12.0504 55.4272 11.8559 55.1808 11.7144C54.9344 11.573 54.6176 11.5023 54.2304 11.5023C53.5791 11.5023 53.0335 11.7498 52.6287 12.2448C52.2063 12.7576 51.9951 13.4295 51.9951 14.2605V18.716H50.3407V12.1388C50.3407 11.9089 50.3407 11.626 50.3231 11.2724C50.3055 10.9188 50.2879 10.6005 50.2703 10.3353H51.8367Z" fill="#080A0C"/>
<path d="M66.4312 17.391C66.1144 17.9037 65.692 18.2927 65.1464 18.5402C64.6008 18.8231 64.02 18.9469 63.4216 18.9469C62.7704 18.9469 62.1896 18.8408 61.6792 18.5933C61.1688 18.3634 60.7288 18.0628 60.3592 17.6562C59.9896 17.2495 59.708 16.7898 59.5144 16.2417C59.3207 15.6936 59.2151 15.1278 59.2151 14.509C59.2151 13.8902 59.3207 13.3244 59.5144 12.7763C59.708 12.2459 60.0072 11.7861 60.3768 11.3795C60.7288 10.9728 61.1864 10.6723 61.6968 10.4424C62.2072 10.2126 62.788 10.1065 63.404 10.1065C64.0904 10.1065 64.6712 10.2479 65.1816 10.5308C65.692 10.8314 66.0792 11.185 66.3784 11.5917H66.4136V5.35034H68.068V18.717H66.4664V17.391H66.4312ZM60.94 14.509C60.94 14.898 60.9928 15.2693 61.116 15.6406C61.2392 16.0119 61.4152 16.3301 61.644 16.613C61.8728 16.8959 62.172 17.1257 62.5064 17.2849C62.8408 17.4617 63.2456 17.5501 63.7032 17.5501C64.1256 17.5501 64.5128 17.4617 64.8648 17.3026C65.1992 17.1434 65.4984 16.9136 65.7448 16.6307C65.9912 16.3655 66.1848 16.0472 66.3256 15.6759C66.4488 15.3046 66.5192 14.9333 66.5192 14.5267C66.5192 14.12 66.4488 13.7487 66.3256 13.3774C66.1848 13.0061 65.9912 12.6879 65.7448 12.405C65.4984 12.1221 65.1992 11.8922 64.8648 11.7331C64.5128 11.574 64.1256 11.4856 63.7032 11.4856C63.2456 11.4856 62.8408 11.574 62.5064 11.7331C62.172 11.8922 61.8728 12.1221 61.644 12.405C61.4152 12.6879 61.2392 13.0061 61.116 13.3774C60.9928 13.7487 60.94 14.12 60.94 14.509Z" fill="#080A0C"/>
<path d="M71.8535 18.7158H70.1991V10.3351H71.8535V18.7158ZM72.1351 7.31168C72.1351 7.61226 72.0295 7.87747 71.8183 8.07196C71.5895 8.26644 71.3255 8.37253 71.0263 8.37253C70.7271 8.37253 70.4631 8.26645 70.2519 8.05428C70.0407 7.85979 69.9351 7.61226 69.9351 7.31168C69.9351 7.01111 70.0407 6.7459 70.2519 6.53373C70.4631 6.33924 70.7271 6.23315 71.0263 6.23315C71.3255 6.23315 71.5895 6.33924 71.8183 6.53373C72.0295 6.7459 72.1351 7.01111 72.1351 7.31168Z" fill="#080A0C"/>
<path fill-rule="evenodd" clip-rule="evenodd" d="M21.1748 19.731C17.599 23.787 11.6673 24.748 6.98844 22.0329C2.3073 19.3164 0.171798 13.6741 1.87647 8.53226L21.1748 19.731Z" fill="#FFA0B5"/>
<path fill-rule="evenodd" clip-rule="evenodd" d="M23.4454 8.53198C25.1523 13.6725 23.0145 19.3162 18.3356 22.0313C13.6545 24.7478 7.72507 23.7854 4.14703 19.7307L23.4454 8.53198Z" fill="#FFA0B5"/>
<path fill-rule="evenodd" clip-rule="evenodd" d="M12.6634 14.782L21.1719 19.7168C20.7613 20.1824 20.3198 20.6071 19.853 20.9905C19.3855 21.3736 18.8828 21.7232 18.3468 22.034C17.873 22.3088 17.3861 22.5457 16.8896 22.7461C15.5476 23.2853 14.115 23.5623 12.6726 23.5642H12.6634H12.6542C11.2121 23.5623 9.77918 23.2853 8.43717 22.7461C7.9407 22.5457 7.45377 22.3088 6.98003 22.034C6.44396 21.7232 5.94126 21.3736 5.47376 20.9905C5.00699 20.6071 4.56551 20.1824 4.15521 19.7168L12.6634 14.782Z" fill="#FF2052"/>
<path fill-rule="evenodd" clip-rule="evenodd" d="M12.6518 0.359131C19.1275 0.359131 24.3852 5.64092 24.3852 12.1463C24.3852 18.6517 19.1275 23.9335 12.6518 23.9335C6.17609 23.9335 0.918396 18.6517 0.918396 12.1463C0.918396 5.64092 6.17609 0.359131 12.6518 0.359131ZM12.6518 1.53785C18.4801 1.53785 23.2118 6.29127 23.2118 12.1463C23.2118 18.0013 18.4801 22.7547 12.6518 22.7547C6.82347 22.7547 2.09173 18.0013 2.09173 12.1463C2.09173 6.29127 6.82347 1.53785 12.6518 1.53785Z" fill="#FF2052"/>
</svg>
