<svg class="ftrstylecd" width="24" height="24" viewBox="0 0 24 24" fill=" #505254" xmlns="http://www.w3.org/2000/svg">
                    <path d="M19.9299 8.02344C20.7111 7.4375 21.4142 6.73438 21.961 5.91406C21.2579 6.22656 20.4376 6.46094 19.6173 6.53906C20.4766 6.03125 21.1016 5.25 21.4141 4.27344C20.6328 4.74219 19.7344 5.09375 18.836 5.28906C18.0547 4.46875 17 4 15.8281 4C13.5625 4 11.7266 5.83594 11.7267 8.10156C11.7267 8.41406 11.7658 8.72656 11.844 9.03906C8.44551 8.84375 5.39857 7.20312 3.36722 4.74219C3.01568 5.32812 2.8204 6.03125 2.82043 6.8125C2.82049 8.21875 3.52366 9.46875 4.65651 10.2109C3.99244 10.1719 3.32837 10.0156 2.78149 9.70312L2.78149 9.74219C2.78157 11.7344 4.18789 13.375 6.0629 13.7656C5.75041 13.8438 5.35978 13.9219 5.00822 13.9219C4.73478 13.9219 4.50041 13.8828 4.22697 13.8438C4.73485 15.4844 6.25833 16.6562 8.05521 16.6953C6.64901 17.7891 4.89122 18.4531 2.97716 18.4531C2.6256 18.4531 2.31309 18.4141 2.00059 18.375C3.79752 19.5469 5.94598 20.2109 8.28973 20.2109C15.8288 20.2109 19.9301 14 19.9299 8.57031C19.9299 8.375 19.9299 8.21875 19.9299 8.02344Z"/>
                  </svg>