<svg class="ftrstylecd" width="24" height="24" viewBox="0 0 24 24" fill=" #505254" xmlns="http://www.w3.org/2000/svg">
                    <path d="M21.3754 11.6875C21.3752 6.33594 17.0391 2 11.6875 2C6.33594 2 2.00018 6.33594 2.0004 11.6875C2.0006 16.5312 5.51639 20.5547 10.1649 21.2578L10.1646 14.5H7.70364L7.70352 11.6875H10.1645L10.1644 9.57812C10.1643 7.15625 11.6095 5.78906 13.797 5.78906C14.8908 5.78906 15.9845 5.98438 15.9845 5.98438L15.9846 8.36719H14.7737C13.5628 8.36719 13.1722 9.10938 13.1722 9.89062L13.1723 11.6875H15.8676L15.438 14.5H13.1724L13.1727 21.2578C17.8211 20.5547 21.3756 16.5312 21.3754 11.6875Z"/>
                  </svg>