<svg width="24" height="24" viewBox="0 0 24 24" fill="none" xmlns="http://www.w3.org/2000/svg">
<path fill-rule="evenodd" clip-rule="evenodd" d="M5.89321 3.57483H18.1069C18.3663 3.57483 18.5766 3.78514 18.5766 4.04458V17.1978C18.5766 17.4572 18.3663 17.6675 18.1069 17.6675H5.89321C5.63378 17.6675 5.42346 17.4572 5.42346 17.1978L5.42346 9.21189L5.42346 4.04458C5.42346 3.78514 5.63378 3.57483 5.89321 3.57483ZM3.54443 9.21189V4.04458C3.54443 2.74739 4.59602 1.6958 5.89321 1.6958H18.1069C19.4041 1.6958 20.4557 2.74739 20.4557 4.04458V17.1978C20.4557 18.495 19.4041 19.5465 18.1069 19.5465H5.89321C5.73234 19.5465 5.57524 19.5304 5.42346 19.4996V20.486C5.42346 21.0049 5.84409 21.4256 6.36297 21.4256H19.0464C19.5653 21.4256 19.9859 21.8462 19.9859 22.3651C19.9859 22.8839 19.5653 23.3046 19.0464 23.3046H6.36297C4.80634 23.3046 3.54443 22.0427 3.54443 20.486V17.1978V9.21189Z" fill="#1E2022"/>
<g clip-path="url(#clip0_579_2092)">
<path fill-rule="evenodd" clip-rule="evenodd" d="M11.3447 11.6136L10.4636 12.5L8 10L10.4636 7.5L11.3616 8.36371L9.69538 9.98599L11.3447 11.6136ZM13.5364 12.5L12.6668 11.5622L14.3046 9.98599L12.6668 8.36371L13.5364 7.5L16 9.99998L13.5364 12.5Z" fill="#1E2022"/>
</g>
<defs>
<clipPath id="clip0_579_2092">
<rect width="8" height="5" fill="white" transform="translate(8 7.5)"/>
</clipPath>
</defs>
</svg>
