<svg width="43" height="43" viewBox="0 0 43 43" fill="none" xmlns="http://www.w3.org/2000/svg">
<ellipse cx="21.3438" cy="21.3437" rx="21.3438" ry="21.3437" fill="#F3F5F7"/>
<g clip-path="url(#clip0_513_3000)">
<path fill-rule="evenodd" clip-rule="evenodd" d="M16.0003 12C14.9072 12 14.0003 12.9069 14.0003 14V17.6387C13.9549 17.6175 13.9455 17.6244 13.8987 17.6016C13.3915 17.3545 12.8201 17 12.0003 17C10.9361 17 9.97174 17.9266 10.0003 19.0254V22.9766C9.97357 24.0744 10.9339 25 12.0003 25C12.8201 25 13.3915 24.6455 13.8987 24.3984C13.9455 24.3756 13.9549 24.3825 14.0003 24.3613V28C14.0003 29.0931 14.9072 30 16.0003 30H29.0002C30.0933 30 31.0002 29.0931 31.0002 28V22H30.0002C29.167 22 28.541 22.3486 28.0217 22.6016C27.5023 22.8545 27.0744 23 27.0002 23V19C27.0744 19 27.5023 19.1455 28.0217 19.3984C28.541 19.6514 29.167 20 30.0002 20H31.0002V14C31.0002 12.9069 30.0933 12 29.0002 12H16.0003ZM16.0003 14H29.0002V17.6387C28.955 17.6175 28.9455 17.6244 28.8986 17.6016C28.3916 17.3545 27.8202 17 27.0002 17C25.9361 17 24.9718 17.9266 25.0003 19.0254V22.9766C24.9736 24.0744 25.9339 25 27.0002 25C27.8202 25 28.3916 24.6455 28.8986 24.3984C28.9454 24.3756 28.955 24.3825 29.0002 24.3613V28H16.0003V22H15.0003C14.1669 22 13.5411 22.3486 13.0217 22.6016C12.5024 22.8545 12.0744 23 12.0003 23V19C12.0744 19 12.5024 19.1455 13.0217 19.3984C13.5411 19.6514 14.1669 20 15.0003 20H16.0003V14Z" fill="#1E2022"/>
</g>
<defs>
<clipPath id="clip0_513_3000">
<rect width="24" height="24" fill="white" transform="translate(9 9)"/>
</clipPath>
</defs>
</svg>
