<svg width="465" height="299" viewBox="0 0 465 299" fill="none" xmlns="http://www.w3.org/2000/svg">
<path d="M125 16.5C125 7.66344 132.163 0.5 141 0.5H318C326.837 0.5 334 7.66344 334 16.5V298.5L229.5 260.079L125 298.5V16.5Z" fill="#F3ECFF"/>
<rect x="13" y="184.5" width="119" height="46" rx="23" fill="#C1549C"/>
<circle cx="36" cy="207.5" r="16" fill="white"/>
<path d="M35.5379 211.782C39.2152 211.782 40.7152 212.87 41.3231 213.687C41.5177 213.957 41.7728 214.177 42.0678 214.33C42.3629 214.483 42.6898 214.565 43.0221 214.569H43.0601C43.6112 214.569 44.1396 214.35 44.5292 213.96C44.9189 213.571 45.1379 213.042 45.1379 212.491V209.304C45.1379 209.304 44.2088 200.324 41.112 200.324C38.0152 200.324 38.0152 201.872 35.5379 201.872C33.0604 201.872 33.0604 200.324 29.9636 200.324C26.8668 200.324 25.9378 209.304 25.9378 209.304V212.491C25.9378 213.042 26.1567 213.571 26.5464 213.96C26.936 214.35 27.4645 214.569 28.0155 214.569H28.0535C28.3859 214.565 28.7128 214.483 29.0078 214.33C29.3029 214.177 29.558 213.957 29.7525 213.687C30.3604 212.87 31.8604 211.782 35.5379 211.782Z" fill="#606B77"/>
<path d="M33.6792 205.588H31.8212V203.73H29.9631V205.588H28.1051V207.446H29.9631V209.304H31.8212V207.446H33.6792V205.588Z" fill="#E7EBEE"/>
<path d="M39.8727 205.279C40.3859 205.279 40.8018 204.863 40.8018 204.35C40.8018 203.837 40.3859 203.421 39.8727 203.421C39.3597 203.421 38.9438 203.837 38.9438 204.35C38.9438 204.863 39.3597 205.279 39.8727 205.279Z" fill="#A8E0FF"/>
<path d="M39.8727 209.614C40.3859 209.614 40.8018 209.198 40.8018 208.685C40.8018 208.172 40.3859 207.756 39.8727 207.756C39.3597 207.756 38.9438 208.172 38.9438 208.685C38.9438 209.198 39.3597 209.614 39.8727 209.614Z" fill="#FCEA81"/>
<path d="M42.0413 207.447C42.5544 207.447 42.9704 207.031 42.9704 206.518C42.9704 206.005 42.5544 205.589 42.0413 205.589C41.5283 205.589 41.1123 206.005 41.1123 206.518C41.1123 207.031 41.5283 207.447 42.0413 207.447Z" fill="#FF476F"/>
<path d="M37.7054 207.447C38.2185 207.447 38.6344 207.031 38.6344 206.518C38.6344 206.005 38.2185 205.589 37.7054 205.589C37.1923 205.589 36.7764 206.005 36.7764 206.518C36.7764 207.031 37.1923 207.447 37.7054 207.447Z" fill="#95C590"/>
<path d="M66.5373 213.716C65.4813 213.716 64.5333 213.482 63.6933 213.014C62.8533 212.546 62.1933 211.862 61.7133 210.962C61.2333 210.05 60.9933 208.946 60.9933 207.65C60.9933 206.69 61.1313 205.832 61.4073 205.076C61.6953 204.32 62.0913 203.678 62.5953 203.15C63.1113 202.61 63.7053 202.202 64.3773 201.926C65.0493 201.65 65.7753 201.512 66.5553 201.512C67.3953 201.512 68.1093 201.662 68.6973 201.962C69.2853 202.262 69.7593 202.61 70.1193 203.006L69.0033 204.284C68.7153 203.996 68.3853 203.768 68.0133 203.6C67.6413 203.42 67.1793 203.33 66.6273 203.33C65.9313 203.33 65.3193 203.504 64.7913 203.852C64.2633 204.188 63.8553 204.674 63.5673 205.31C63.2793 205.946 63.1353 206.708 63.1353 207.596C63.1353 208.484 63.2733 209.252 63.5493 209.9C63.8253 210.548 64.2273 211.046 64.7553 211.394C65.2953 211.73 65.9553 211.898 66.7353 211.898C67.0713 211.898 67.3893 211.856 67.6893 211.772C67.9893 211.676 68.2353 211.544 68.4273 211.376V208.838H66.1953V207.128H70.2993V212.312C69.9033 212.708 69.3753 213.044 68.7153 213.32C68.0673 213.584 67.3413 213.716 66.5373 213.716ZM74.8701 213.716C74.3541 213.716 73.8981 213.608 73.5021 213.392C73.1061 213.176 72.7941 212.876 72.5661 212.492C72.3501 212.096 72.2421 211.64 72.2421 211.124C72.2421 210.128 72.6561 209.378 73.4841 208.874C74.3241 208.358 75.6501 208.004 77.4621 207.812C77.4501 207.512 77.3901 207.236 77.2821 206.984C77.1861 206.732 77.0181 206.534 76.7781 206.39C76.5501 206.234 76.2381 206.156 75.8421 206.156C75.4101 206.156 74.9841 206.234 74.5641 206.39C74.1561 206.546 73.7541 206.744 73.3581 206.984L72.6021 205.58C72.9261 205.376 73.2801 205.19 73.6641 205.022C74.0481 204.842 74.4561 204.704 74.8881 204.608C75.3201 204.5 75.7701 204.446 76.2381 204.446C76.9701 204.446 77.5761 204.596 78.0561 204.896C78.5481 205.184 78.9141 205.616 79.1541 206.192C79.4061 206.756 79.5321 207.452 79.5321 208.28V213.5H77.8221L77.6781 212.528H77.6061C77.1981 212.864 76.7721 213.146 76.3281 213.374C75.8841 213.602 75.3981 213.716 74.8701 213.716ZM75.5181 212.024C75.8781 212.024 76.2081 211.952 76.5081 211.808C76.8201 211.652 77.1381 211.424 77.4621 211.124V209.252C76.6581 209.348 76.0221 209.474 75.5541 209.63C75.0861 209.786 74.7501 209.978 74.5461 210.206C74.3541 210.422 74.2581 210.68 74.2581 210.98C74.2581 211.352 74.3781 211.622 74.6181 211.79C74.8581 211.946 75.1581 212.024 75.5181 212.024ZM82.0093 213.5V204.662H83.7193L83.8633 205.868H83.9353C84.3073 205.472 84.7093 205.136 85.1413 204.86C85.5853 204.584 86.0833 204.446 86.6353 204.446C87.2953 204.446 87.8173 204.584 88.2013 204.86C88.5853 205.136 88.8793 205.526 89.0833 206.03C89.5033 205.574 89.9413 205.196 90.3973 204.896C90.8533 204.596 91.3633 204.446 91.9273 204.446C92.8633 204.446 93.5533 204.752 93.9973 205.364C94.4413 205.976 94.6633 206.84 94.6633 207.956V213.5H92.5753V208.226C92.5753 207.494 92.4673 206.978 92.2513 206.678C92.0353 206.378 91.6933 206.228 91.2253 206.228C90.9373 206.228 90.6433 206.318 90.3433 206.498C90.0433 206.678 89.7193 206.954 89.3713 207.326V213.5H87.3013V208.226C87.3013 207.494 87.1873 206.978 86.9593 206.678C86.7433 206.378 86.4013 206.228 85.9333 206.228C85.3813 206.228 84.7633 206.594 84.0793 207.326V213.5H82.0093ZM97.1792 213.5V204.662H99.2492V213.5H97.1792ZM98.2052 203.114C97.8452 203.114 97.5452 203.006 97.3052 202.79C97.0772 202.574 96.9632 202.286 96.9632 201.926C96.9632 201.566 97.0772 201.284 97.3052 201.08C97.5452 200.864 97.8452 200.756 98.2052 200.756C98.5772 200.756 98.8772 200.864 99.1052 201.08C99.3332 201.284 99.4472 201.566 99.4472 201.926C99.4472 202.286 99.3332 202.574 99.1052 202.79C98.8772 203.006 98.5772 203.114 98.2052 203.114ZM101.89 213.5V204.662H103.6L103.744 205.85H103.816C104.212 205.466 104.644 205.136 105.112 204.86C105.58 204.584 106.114 204.446 106.714 204.446C107.662 204.446 108.352 204.752 108.784 205.364C109.216 205.976 109.432 206.84 109.432 207.956V213.5H107.362V208.226C107.362 207.494 107.254 206.978 107.038 206.678C106.822 206.378 106.468 206.228 105.976 206.228C105.592 206.228 105.25 206.324 104.95 206.516C104.662 206.696 104.332 206.966 103.96 207.326V213.5H101.89ZM115.04 217.406C114.332 217.406 113.702 217.322 113.15 217.154C112.598 216.986 112.16 216.728 111.836 216.38C111.524 216.044 111.368 215.618 111.368 215.102C111.368 214.73 111.476 214.382 111.692 214.058C111.92 213.746 112.232 213.464 112.628 213.212V213.14C112.412 212.996 112.226 212.804 112.07 212.564C111.914 212.324 111.836 212.024 111.836 211.664C111.836 211.328 111.932 211.016 112.124 210.728C112.328 210.44 112.556 210.206 112.808 210.026V209.954C112.508 209.726 112.238 209.408 111.998 209C111.77 208.592 111.656 208.13 111.656 207.614C111.656 206.942 111.818 206.372 112.142 205.904C112.466 205.424 112.892 205.064 113.42 204.824C113.948 204.572 114.524 204.446 115.148 204.446C115.388 204.446 115.622 204.464 115.85 204.5C116.078 204.536 116.276 204.59 116.444 204.662H119.612V206.192H117.956V206.264C118.124 206.444 118.256 206.654 118.352 206.894C118.448 207.122 118.496 207.392 118.496 207.704C118.496 208.352 118.346 208.898 118.046 209.342C117.746 209.786 117.344 210.122 116.84 210.35C116.336 210.578 115.772 210.692 115.148 210.692C114.956 210.692 114.758 210.674 114.554 210.638C114.35 210.602 114.146 210.542 113.942 210.458C113.822 210.578 113.72 210.698 113.636 210.818C113.552 210.938 113.51 211.1 113.51 211.304C113.51 211.556 113.618 211.754 113.834 211.898C114.05 212.042 114.422 212.114 114.95 212.114H116.516C117.584 212.114 118.388 212.288 118.928 212.636C119.48 212.972 119.756 213.524 119.756 214.292C119.756 214.868 119.564 215.39 119.18 215.858C118.796 216.338 118.25 216.716 117.542 216.992C116.834 217.268 116 217.406 115.04 217.406ZM115.148 209.396C115.424 209.396 115.676 209.33 115.904 209.198C116.144 209.054 116.33 208.85 116.462 208.586C116.606 208.31 116.678 207.986 116.678 207.614C116.678 207.05 116.528 206.618 116.228 206.318C115.94 206.018 115.58 205.868 115.148 205.868C114.716 205.868 114.35 206.018 114.05 206.318C113.75 206.618 113.6 207.05 113.6 207.614C113.6 207.986 113.672 208.31 113.816 208.586C113.96 208.85 114.146 209.054 114.374 209.198C114.602 209.33 114.86 209.396 115.148 209.396ZM115.364 216.056C115.832 216.056 116.246 215.99 116.606 215.858C116.966 215.738 117.248 215.564 117.452 215.336C117.656 215.12 117.758 214.886 117.758 214.634C117.758 214.286 117.62 214.052 117.344 213.932C117.08 213.812 116.696 213.752 116.192 213.752H114.986C114.746 213.752 114.53 213.74 114.338 213.716C114.146 213.692 113.96 213.662 113.78 213.626C113.552 213.806 113.378 213.992 113.258 214.184C113.15 214.376 113.096 214.58 113.096 214.796C113.096 215.192 113.3 215.498 113.708 215.714C114.116 215.942 114.668 216.056 115.364 216.056Z" fill="white"/>
<rect x="144" y="184.5" width="117" height="46" rx="23" fill="#FF6E8D"/>
<circle cx="167" cy="207.5" r="16" fill="white"/>
<path d="M167.279 213.5C170.46 213.5 173.039 210.814 173.039 207.5C173.039 204.186 170.46 201.5 167.279 201.5C164.098 201.5 161.519 204.186 161.519 207.5C161.519 210.814 164.098 213.5 167.279 213.5Z" fill="white"/>
<path d="M176.594 205.122C175.448 205.107 174.337 204.485 173.722 203.375C173.131 202.307 173.143 201.051 173.645 200.029C172.625 199.085 171.416 198.359 170.078 197.935C169.476 198.878 168.448 199.5 167.279 199.5C166.11 199.5 165.082 198.878 164.48 197.935C163.142 198.359 161.934 199.085 160.914 200.029C161.416 201.051 161.428 202.307 160.836 203.375C160.221 204.485 159.111 205.107 157.964 205.122C157.784 205.885 157.679 206.679 157.679 207.5C157.679 208.142 157.743 208.768 157.854 209.376C159.039 209.351 160.201 209.98 160.836 211.125C161.492 212.31 161.406 213.727 160.73 214.798C161.73 215.771 162.925 216.526 164.253 216.985C164.796 215.812 165.945 215 167.279 215C168.613 215 169.762 215.812 170.304 216.986C171.632 216.526 172.828 215.772 173.828 214.798C173.152 213.728 173.065 212.311 173.722 211.126C174.356 209.981 175.519 209.351 176.704 209.377C176.815 208.768 176.879 208.142 176.879 207.5C176.879 206.679 176.773 205.885 176.594 205.122ZM173.039 207.5C173.039 208.313 172.882 209.088 172.601 209.795L170.121 207.965C170.144 207.813 170.159 207.659 170.159 207.5C170.159 206.195 169.357 205.087 168.239 204.675V201.59C170.962 202.067 173.039 204.528 173.039 207.5ZM166.319 201.59V204.675C165.201 205.087 164.399 206.195 164.399 207.5C164.399 207.659 164.414 207.813 164.437 207.965L161.957 209.795C161.676 209.088 161.519 208.313 161.519 207.5C161.519 204.528 163.596 202.067 166.319 201.59ZM167.279 213.5C165.57 213.5 164.039 212.72 162.984 211.489L165.361 209.734C165.871 210.209 166.542 210.5 167.279 210.5C168.016 210.5 168.687 210.209 169.196 209.734L171.574 211.489C170.519 212.72 168.988 213.5 167.279 213.5Z" fill="#00A3FF"/>
<path d="M173.039 207.5C173.039 210.813 170.46 213.5 167.279 213.5C164.098 213.5 161.519 210.813 161.519 207.5C161.519 204.187 164.098 201.5 167.279 201.5C170.46 201.5 173.039 204.187 173.039 207.5Z" fill="#D0FBF9"/>
<path fill-rule="evenodd" clip-rule="evenodd" d="M166.588 204.219V203.9C166.588 203.636 166.795 203.42 167.048 203.42C167.302 203.42 167.509 203.636 167.509 203.9V204.168C168.425 204.318 169.122 205.056 169.122 205.94C169.122 206.271 168.864 206.54 168.546 206.54C168.228 206.54 167.97 206.271 167.97 205.94C167.97 205.615 167.601 205.34 167.164 205.34C166.727 205.34 166.357 205.615 166.357 205.94C166.357 206.408 166.66 206.599 167.404 206.955C168.129 207.301 169.122 207.775 169.122 209.06C169.122 209.944 168.425 210.681 167.509 210.832V211.1C167.509 211.364 167.302 211.58 167.048 211.58C166.795 211.58 166.588 211.364 166.588 211.1V210.781C165.788 210.554 165.205 209.868 165.205 209.06C165.205 208.728 165.463 208.46 165.781 208.46C166.099 208.46 166.357 208.728 166.357 209.06C166.357 209.385 166.727 209.66 167.164 209.66C167.601 209.66 167.97 209.385 167.97 209.06C167.97 208.591 167.667 208.4 166.924 208.045C166.198 207.699 165.205 207.225 165.205 205.94C165.205 205.132 165.788 204.446 166.588 204.219Z" fill="#00A3FF"/>
<path d="M192.838 213.5V201.728H199.948V203.492H194.926V206.822H199.21V208.586H194.926V213.5H192.838ZM201.834 213.5V204.662H203.904V213.5H201.834ZM202.86 203.114C202.5 203.114 202.2 203.006 201.96 202.79C201.732 202.574 201.618 202.286 201.618 201.926C201.618 201.566 201.732 201.284 201.96 201.08C202.2 200.864 202.5 200.756 202.86 200.756C203.232 200.756 203.532 200.864 203.76 201.08C203.988 201.284 204.102 201.566 204.102 201.926C204.102 202.286 203.988 202.574 203.76 202.79C203.532 203.006 203.232 203.114 202.86 203.114ZM206.544 213.5V204.662H208.254L208.398 205.85H208.47C208.866 205.466 209.298 205.136 209.766 204.86C210.234 204.584 210.768 204.446 211.368 204.446C212.316 204.446 213.006 204.752 213.438 205.364C213.87 205.976 214.086 206.84 214.086 207.956V213.5H212.016V208.226C212.016 207.494 211.908 206.978 211.692 206.678C211.476 206.378 211.122 206.228 210.63 206.228C210.246 206.228 209.904 206.324 209.604 206.516C209.316 206.696 208.986 206.966 208.614 207.326V213.5H206.544ZM219.731 213.68C218.711 213.68 217.985 213.386 217.553 212.798C217.133 212.198 216.923 211.424 216.923 210.476V206.3H215.663V204.752L217.031 204.662L217.283 201.89H219.011V204.662H221.261V206.3H219.011V210.476C219.011 210.992 219.113 211.382 219.317 211.646C219.521 211.898 219.833 212.024 220.253 212.024C220.409 212.024 220.565 212.012 220.721 211.988C220.877 211.964 221.027 211.916 221.171 211.844L221.549 213.302C221.321 213.41 221.051 213.5 220.739 213.572C220.427 213.644 220.091 213.68 219.731 213.68ZM226.637 213.716C225.809 213.716 225.059 213.536 224.387 213.176C223.727 212.804 223.205 212.276 222.821 211.592C222.437 210.896 222.245 210.056 222.245 209.072C222.245 208.112 222.443 207.29 222.839 206.606C223.235 205.91 223.745 205.376 224.369 205.004C224.993 204.632 225.653 204.446 226.349 204.446C227.153 204.446 227.825 204.626 228.365 204.986C228.905 205.346 229.307 205.844 229.571 206.48C229.847 207.104 229.985 207.824 229.985 208.64C229.985 208.832 229.973 209.018 229.949 209.198C229.937 209.378 229.913 209.552 229.877 209.72H223.793V208.136H228.149C228.149 207.5 228.005 207.002 227.717 206.642C227.429 206.27 226.985 206.084 226.385 206.084C226.049 206.084 225.719 206.174 225.395 206.354C225.083 206.534 224.819 206.84 224.603 207.272C224.399 207.704 224.297 208.304 224.297 209.072C224.297 209.768 224.417 210.338 224.657 210.782C224.897 211.214 225.215 211.538 225.611 211.754C226.007 211.958 226.433 212.06 226.889 212.06C227.273 212.06 227.633 212.006 227.969 211.898C228.317 211.79 228.641 211.64 228.941 211.448L229.661 212.78C229.253 213.068 228.785 213.296 228.257 213.464C227.741 213.632 227.201 213.716 226.637 213.716ZM235.688 213.716C234.872 213.716 234.14 213.536 233.492 213.176C232.844 212.804 232.328 212.276 231.944 211.592C231.572 210.896 231.386 210.062 231.386 209.09C231.386 208.106 231.59 207.272 231.998 206.588C232.406 205.892 232.946 205.364 233.618 205.004C234.302 204.632 235.034 204.446 235.814 204.446C236.378 204.446 236.87 204.542 237.29 204.734C237.722 204.914 238.094 205.148 238.406 205.436L237.416 206.732C237.224 206.552 237.002 206.408 236.75 206.3C236.51 206.192 236.234 206.138 235.922 206.138C235.454 206.138 235.04 206.264 234.68 206.516C234.32 206.756 234.032 207.098 233.816 207.542C233.612 207.974 233.51 208.49 233.51 209.09C233.51 209.678 233.612 210.194 233.816 210.638C234.02 211.07 234.296 211.412 234.644 211.664C235.004 211.904 235.418 212.024 235.886 212.024C236.234 212.024 236.558 211.958 236.858 211.826C237.17 211.694 237.446 211.526 237.686 211.322L238.532 212.6C238.16 212.936 237.728 213.206 237.236 213.41C236.756 213.614 236.24 213.716 235.688 213.716ZM240.277 213.5V200.792H242.347V204.068L242.275 205.778C242.647 205.43 243.061 205.124 243.517 204.86C243.973 204.584 244.501 204.446 245.101 204.446C246.049 204.446 246.739 204.752 247.171 205.364C247.603 205.976 247.819 206.84 247.819 207.956V213.5H245.749V208.226C245.749 207.494 245.641 206.978 245.425 206.678C245.209 206.378 244.855 206.228 244.363 206.228C243.979 206.228 243.637 206.324 243.337 206.516C243.049 206.696 242.719 206.966 242.347 207.326V213.5H240.277Z" fill="white"/>
<rect x="273" y="184.5" width="139" height="46" rx="23" fill="#8B5EAF"/>
<circle cx="296" cy="207.5" r="16" fill="white"/>
<path d="M306.01 197.5H286.01V217.5H306.01V197.5Z" fill="#FFD600"/>
<path d="M299.087 212.467C299.471 213.091 299.887 213.69 300.774 213.69C301.517 213.69 301.907 213.321 301.907 212.809C301.907 212.197 301.507 211.98 300.686 211.624L300.238 211.433C298.944 210.884 298.084 210.196 298.084 208.744C298.087 208.412 298.16 208.084 298.296 207.782C298.433 207.479 298.631 207.208 298.878 206.986C299.126 206.765 299.416 206.597 299.732 206.493C300.047 206.39 300.381 206.353 300.711 206.386C301.23 206.348 301.748 206.464 302.201 206.718C302.655 206.972 303.024 207.353 303.262 207.815L301.862 208.708C301.77 208.479 301.61 208.283 301.404 208.146C301.198 208.009 300.956 207.939 300.708 207.943C300.601 207.932 300.492 207.944 300.389 207.977C300.286 208.01 300.192 208.065 300.111 208.137C300.03 208.209 299.965 208.297 299.92 208.395C299.876 208.493 299.852 208.6 299.85 208.708C299.85 209.244 300.183 209.46 300.95 209.792L301.398 209.983C302.923 210.632 303.783 211.296 303.783 212.783C303.783 214.39 302.514 215.27 300.811 215.27C300.163 215.305 299.519 215.146 298.961 214.815C298.403 214.483 297.957 213.993 297.677 213.407L299.087 212.467ZM292.65 212.513C292.766 212.77 292.952 212.989 293.185 213.147C293.419 213.304 293.692 213.393 293.973 213.404C294.561 213.404 294.899 213.172 294.899 212.269V206.389H296.751V212.557C296.795 212.921 296.757 213.29 296.639 213.637C296.521 213.984 296.326 214.3 296.069 214.561C295.812 214.823 295.5 215.023 295.155 215.147C294.81 215.271 294.442 215.316 294.077 215.278C293.47 215.267 292.878 215.085 292.369 214.755C291.859 214.424 291.453 213.957 291.195 213.407L292.65 212.513Z" fill="#000001"/>
<path d="M324.046 213.716C323.278 213.716 322.612 213.554 322.048 213.23C321.496 212.894 321.046 212.378 320.698 211.682L322.048 210.764C322.252 211.136 322.51 211.418 322.822 211.61C323.146 211.802 323.494 211.898 323.866 211.898C324.454 211.898 324.886 211.724 325.162 211.376C325.45 211.028 325.594 210.422 325.594 209.558V201.728H327.682V209.738C327.682 210.47 327.556 211.136 327.304 211.736C327.052 212.336 326.656 212.816 326.116 213.176C325.588 213.536 324.898 213.716 324.046 213.716ZM332.581 213.716C332.065 213.716 331.609 213.608 331.213 213.392C330.817 213.176 330.505 212.876 330.277 212.492C330.061 212.096 329.953 211.64 329.953 211.124C329.953 210.128 330.367 209.378 331.195 208.874C332.035 208.358 333.361 208.004 335.173 207.812C335.161 207.512 335.101 207.236 334.993 206.984C334.897 206.732 334.729 206.534 334.489 206.39C334.261 206.234 333.949 206.156 333.553 206.156C333.121 206.156 332.695 206.234 332.275 206.39C331.867 206.546 331.465 206.744 331.069 206.984L330.313 205.58C330.637 205.376 330.991 205.19 331.375 205.022C331.759 204.842 332.167 204.704 332.599 204.608C333.031 204.5 333.481 204.446 333.949 204.446C334.681 204.446 335.287 204.596 335.767 204.896C336.259 205.184 336.625 205.616 336.865 206.192C337.117 206.756 337.243 207.452 337.243 208.28V213.5H335.533L335.389 212.528H335.317C334.909 212.864 334.483 213.146 334.039 213.374C333.595 213.602 333.109 213.716 332.581 213.716ZM333.229 212.024C333.589 212.024 333.919 211.952 334.219 211.808C334.531 211.652 334.849 211.424 335.173 211.124V209.252C334.369 209.348 333.733 209.474 333.265 209.63C332.797 209.786 332.461 209.978 332.257 210.206C332.065 210.422 331.969 210.68 331.969 210.98C331.969 211.352 332.089 211.622 332.329 211.79C332.569 211.946 332.869 212.024 333.229 212.024ZM341.7 213.5L338.622 204.662H340.728L342.132 209.252C342.252 209.672 342.372 210.11 342.492 210.566C342.624 211.01 342.75 211.46 342.87 211.916H342.942C343.074 211.46 343.2 211.01 343.32 210.566C343.452 210.11 343.578 209.672 343.698 209.252L345.102 204.662H347.1L344.094 213.5H341.7ZM350.423 213.716C349.907 213.716 349.451 213.608 349.055 213.392C348.659 213.176 348.347 212.876 348.119 212.492C347.903 212.096 347.795 211.64 347.795 211.124C347.795 210.128 348.209 209.378 349.037 208.874C349.877 208.358 351.203 208.004 353.015 207.812C353.003 207.512 352.943 207.236 352.835 206.984C352.739 206.732 352.571 206.534 352.331 206.39C352.103 206.234 351.791 206.156 351.395 206.156C350.963 206.156 350.537 206.234 350.117 206.39C349.709 206.546 349.307 206.744 348.911 206.984L348.155 205.58C348.479 205.376 348.833 205.19 349.217 205.022C349.601 204.842 350.009 204.704 350.441 204.608C350.873 204.5 351.323 204.446 351.791 204.446C352.523 204.446 353.129 204.596 353.609 204.896C354.101 205.184 354.467 205.616 354.707 206.192C354.959 206.756 355.085 207.452 355.085 208.28V213.5H353.375L353.231 212.528H353.159C352.751 212.864 352.325 213.146 351.881 213.374C351.437 213.602 350.951 213.716 350.423 213.716ZM351.071 212.024C351.431 212.024 351.761 211.952 352.061 211.808C352.373 211.652 352.691 211.424 353.015 211.124V209.252C352.211 209.348 351.575 209.474 351.107 209.63C350.639 209.786 350.303 209.978 350.099 210.206C349.907 210.422 349.811 210.68 349.811 210.98C349.811 211.352 349.931 211.622 350.171 211.79C350.411 211.946 350.711 212.024 351.071 212.024ZM360.028 213.716C359.416 213.716 358.81 213.602 358.21 213.374C357.622 213.146 357.112 212.828 356.68 212.42L357.598 211.232C357.994 211.556 358.396 211.79 358.804 211.934C359.212 212.078 359.644 212.15 360.1 212.15C360.58 212.15 360.934 212.048 361.162 211.844C361.39 211.64 361.504 211.388 361.504 211.088C361.504 210.848 361.414 210.644 361.234 210.476C361.066 210.308 360.844 210.164 360.568 210.044C360.292 209.924 359.986 209.804 359.65 209.684C359.218 209.528 358.816 209.342 358.444 209.126C358.072 208.898 357.766 208.622 357.526 208.298C357.298 207.962 357.184 207.56 357.184 207.092C357.184 206.312 357.472 205.676 358.048 205.184C358.624 204.692 359.404 204.446 360.388 204.446C360.988 204.446 361.54 204.548 362.044 204.752C362.548 204.944 362.98 205.196 363.34 205.508L362.422 206.678C362.11 206.45 361.792 206.282 361.468 206.174C361.144 206.066 360.802 206.012 360.442 206.012C359.998 206.012 359.668 206.108 359.452 206.3C359.236 206.492 359.128 206.72 359.128 206.984C359.128 207.2 359.194 207.386 359.326 207.542C359.47 207.686 359.674 207.818 359.938 207.938C360.202 208.046 360.52 208.16 360.892 208.28C361.348 208.436 361.774 208.628 362.17 208.856C362.566 209.072 362.878 209.354 363.106 209.702C363.346 210.038 363.466 210.464 363.466 210.98C363.466 211.484 363.334 211.946 363.07 212.366C362.806 212.774 362.416 213.104 361.9 213.356C361.396 213.596 360.772 213.716 360.028 213.716ZM369.04 213.716C368.224 213.716 367.492 213.536 366.844 213.176C366.196 212.804 365.68 212.276 365.296 211.592C364.924 210.896 364.738 210.062 364.738 209.09C364.738 208.106 364.942 207.272 365.35 206.588C365.758 205.892 366.298 205.364 366.97 205.004C367.654 204.632 368.386 204.446 369.166 204.446C369.73 204.446 370.222 204.542 370.642 204.734C371.074 204.914 371.446 205.148 371.758 205.436L370.768 206.732C370.576 206.552 370.354 206.408 370.102 206.3C369.862 206.192 369.586 206.138 369.274 206.138C368.806 206.138 368.392 206.264 368.032 206.516C367.672 206.756 367.384 207.098 367.168 207.542C366.964 207.974 366.862 208.49 366.862 209.09C366.862 209.678 366.964 210.194 367.168 210.638C367.372 211.07 367.648 211.412 367.996 211.664C368.356 211.904 368.77 212.024 369.238 212.024C369.586 212.024 369.91 211.958 370.21 211.826C370.522 211.694 370.798 211.526 371.038 211.322L371.884 212.6C371.512 212.936 371.08 213.206 370.588 213.41C370.108 213.614 369.592 213.716 369.04 213.716ZM373.628 213.5V204.662H375.338L375.482 206.228H375.554C375.866 205.652 376.238 205.214 376.67 204.914C377.114 204.602 377.576 204.446 378.056 204.446C378.284 204.446 378.476 204.458 378.632 204.482C378.788 204.506 378.932 204.554 379.064 204.626L378.65 206.39C378.506 206.354 378.374 206.33 378.254 206.318C378.134 206.294 377.978 206.282 377.786 206.282C377.438 206.282 377.072 206.42 376.688 206.696C376.304 206.96 375.974 207.428 375.698 208.1V213.5H373.628ZM380.343 213.5V204.662H382.413V213.5H380.343ZM381.369 203.114C381.009 203.114 380.709 203.006 380.469 202.79C380.241 202.574 380.127 202.286 380.127 201.926C380.127 201.566 380.241 201.284 380.469 201.08C380.709 200.864 381.009 200.756 381.369 200.756C381.741 200.756 382.041 200.864 382.269 201.08C382.497 201.284 382.611 201.566 382.611 201.926C382.611 202.286 382.497 202.574 382.269 202.79C382.041 203.006 381.741 203.114 381.369 203.114ZM385.054 216.992V204.662H386.764L386.908 205.598H386.98C387.352 205.274 387.766 205.004 388.222 204.788C388.678 204.56 389.152 204.446 389.644 204.446C390.376 204.446 391 204.632 391.516 205.004C392.032 205.376 392.428 205.898 392.704 206.57C392.98 207.242 393.118 208.034 393.118 208.946C393.118 209.954 392.938 210.812 392.578 211.52C392.218 212.228 391.75 212.774 391.174 213.158C390.61 213.53 389.998 213.716 389.338 213.716C388.954 213.716 388.57 213.632 388.186 213.464C387.802 213.296 387.43 213.056 387.07 212.744L387.124 214.22V216.992H385.054ZM388.906 212.006C389.302 212.006 389.656 211.892 389.968 211.664C390.28 211.436 390.526 211.1 390.706 210.656C390.886 210.2 390.976 209.636 390.976 208.964C390.976 208.376 390.91 207.872 390.778 207.452C390.646 207.032 390.436 206.714 390.148 206.498C389.872 206.27 389.512 206.156 389.068 206.156C388.744 206.156 388.426 206.24 388.114 206.408C387.802 206.564 387.472 206.81 387.124 207.146V211.268C387.448 211.532 387.76 211.724 388.06 211.844C388.372 211.952 388.654 212.006 388.906 212.006ZM397.924 213.68C396.904 213.68 396.178 213.386 395.746 212.798C395.326 212.198 395.116 211.424 395.116 210.476V206.3H393.856V204.752L395.224 204.662L395.476 201.89H397.204V204.662H399.454V206.3H397.204V210.476C397.204 210.992 397.306 211.382 397.51 211.646C397.714 211.898 398.026 212.024 398.446 212.024C398.602 212.024 398.758 212.012 398.914 211.988C399.07 211.964 399.22 211.916 399.364 211.844L399.742 213.302C399.514 213.41 399.244 213.5 398.932 213.572C398.62 213.644 398.284 213.68 397.924 213.68Z" fill="white"/>
<rect x="52.75" y="126.5" width="151" height="46" rx="23" fill="#FB836F"/>
<circle cx="75.75" cy="149.5" r="16" fill="white"/>
<path d="M82.75 140.5H68.75C67.647 140.5 66.75 141.396 66.75 142.5V156.5C66.75 157.603 67.646 158.5 68.749 158.5H82.749C83.852 158.5 84.749 157.603 84.749 156.5L84.75 142.5C84.75 141.396 83.853 140.5 82.75 140.5Z" fill="#B5E4FF"/>
<path d="M69.2502 152H73.2502V156H69.2502V152ZM78.2502 152H82.2502V156H78.2502V152ZM69.2502 143H73.2502V147H69.2502V143ZM78.2502 143H82.2502V147H78.2502V143Z" fill="#3F51B5"/>
<path d="M73.2502 144.5H75.2502V145.5H73.2502V144.5ZM76.2502 144.5H77.2502V145.5H76.2502V144.5ZM79.7502 147H80.7502V149H79.7502V147ZM79.7502 150H80.7502V151H79.7502V150ZM70.7502 150H71.7502V152H70.7502V150ZM70.7502 148H71.7502V149H70.7502V148ZM74.2502 153.5H75.2502V154.5H74.2502V153.5ZM76.2502 153.5H78.2502V154.5H76.2502V153.5Z" fill="#2196F3"/>
<path d="M82.75 140.5H68.75C67.647 140.5 66.75 141.396 66.75 142.5V156.5C66.75 157.603 67.646 158.5 68.749 158.5H82.749C83.852 158.5 84.749 157.603 84.749 156.5L84.75 142.5C84.75 141.396 83.853 140.5 82.75 140.5Z" fill="#B5E4FF"/>
<path d="M69.2502 152H73.2502V156H69.2502V152ZM78.2502 152H82.2502V156H78.2502V152ZM69.2502 143H73.2502V147H69.2502V143ZM78.2502 143H82.2502V147H78.2502V143Z" fill="#495FAB"/>
<path d="M73.2502 144.5H75.2502V145.5H73.2502V144.5ZM76.2502 144.5H77.2502V145.5H76.2502V144.5ZM79.7502 147H80.7502V149H79.7502V147ZM79.7502 150H80.7502V151H79.7502V150ZM70.7502 150H71.7502V152H70.7502V150ZM70.7502 148H71.7502V149H70.7502V148ZM74.2502 153.5H75.2502V154.5H74.2502V153.5ZM76.2502 153.5H78.2502V154.5H76.2502V153.5Z" fill="#495FAB"/>
<path d="M101.943 155.5V143.728H105.705C106.521 143.728 107.241 143.824 107.865 144.016C108.501 144.196 108.999 144.496 109.359 144.916C109.731 145.336 109.917 145.906 109.917 146.626C109.917 147.226 109.773 147.76 109.485 148.228C109.209 148.684 108.807 149.002 108.279 149.182V149.254C108.975 149.398 109.521 149.692 109.917 150.136C110.325 150.568 110.529 151.174 110.529 151.954C110.529 152.758 110.331 153.424 109.935 153.952C109.551 154.48 109.017 154.87 108.333 155.122C107.649 155.374 106.875 155.5 106.011 155.5H101.943ZM104.031 148.588H105.525C106.341 148.588 106.935 148.438 107.307 148.138C107.679 147.838 107.865 147.436 107.865 146.932C107.865 146.356 107.673 145.948 107.289 145.708C106.905 145.468 106.329 145.348 105.561 145.348H104.031V148.588ZM104.031 153.88H105.795C106.659 153.88 107.325 153.724 107.793 153.412C108.261 153.088 108.495 152.596 108.495 151.936C108.495 151.312 108.267 150.862 107.811 150.586C107.355 150.298 106.683 150.154 105.795 150.154H104.031V153.88ZM114.519 155.68C114.027 155.68 113.631 155.584 113.331 155.392C113.043 155.188 112.833 154.9 112.701 154.528C112.569 154.156 112.503 153.712 112.503 153.196V142.792H114.573V153.304C114.573 153.568 114.621 153.748 114.717 153.844C114.813 153.94 114.921 153.988 115.041 153.988C115.089 153.988 115.131 153.988 115.167 153.988C115.215 153.976 115.275 153.964 115.347 153.952L115.617 155.5C115.497 155.548 115.341 155.59 115.149 155.626C114.969 155.662 114.759 155.68 114.519 155.68ZM121.008 155.716C120.276 155.716 119.592 155.536 118.956 155.176C118.32 154.804 117.804 154.276 117.408 153.592C117.012 152.896 116.814 152.062 116.814 151.09C116.814 150.106 117.012 149.272 117.408 148.588C117.804 147.892 118.32 147.364 118.956 147.004C119.592 146.632 120.276 146.446 121.008 146.446C121.752 146.446 122.442 146.632 123.078 147.004C123.714 147.364 124.23 147.892 124.626 148.588C125.022 149.272 125.22 150.106 125.22 151.09C125.22 152.062 125.022 152.896 124.626 153.592C124.23 154.276 123.714 154.804 123.078 155.176C122.442 155.536 121.752 155.716 121.008 155.716ZM121.008 154.024C121.44 154.024 121.812 153.904 122.124 153.664C122.436 153.424 122.676 153.082 122.844 152.638C123.012 152.194 123.096 151.678 123.096 151.09C123.096 150.502 123.012 149.986 122.844 149.542C122.676 149.098 122.436 148.756 122.124 148.516C121.812 148.264 121.44 148.138 121.008 148.138C120.576 148.138 120.204 148.264 119.892 148.516C119.592 148.756 119.358 149.098 119.19 149.542C119.022 149.986 118.938 150.502 118.938 151.09C118.938 151.678 119.022 152.194 119.19 152.638C119.358 153.082 119.592 153.424 119.892 153.664C120.204 153.904 120.576 154.024 121.008 154.024ZM130.995 155.716C130.179 155.716 129.447 155.536 128.799 155.176C128.151 154.804 127.635 154.276 127.251 153.592C126.879 152.896 126.693 152.062 126.693 151.09C126.693 150.106 126.897 149.272 127.305 148.588C127.713 147.892 128.253 147.364 128.925 147.004C129.609 146.632 130.341 146.446 131.121 146.446C131.685 146.446 132.177 146.542 132.597 146.734C133.029 146.914 133.401 147.148 133.713 147.436L132.723 148.732C132.531 148.552 132.309 148.408 132.057 148.3C131.817 148.192 131.541 148.138 131.229 148.138C130.761 148.138 130.347 148.264 129.987 148.516C129.627 148.756 129.339 149.098 129.123 149.542C128.919 149.974 128.817 150.49 128.817 151.09C128.817 151.678 128.919 152.194 129.123 152.638C129.327 153.07 129.603 153.412 129.951 153.664C130.311 153.904 130.725 154.024 131.193 154.024C131.541 154.024 131.865 153.958 132.165 153.826C132.477 153.694 132.753 153.526 132.993 153.322L133.839 154.6C133.467 154.936 133.035 155.206 132.543 155.41C132.063 155.614 131.547 155.716 130.995 155.716ZM135.584 155.5V142.792H137.636V150.712H137.69L140.93 146.662H143.216L140.21 150.28L143.522 155.5H141.272L139.004 151.666L137.636 153.232V155.5H135.584ZM153.505 155.716C152.509 155.716 151.603 155.482 150.787 155.014C149.983 154.546 149.341 153.862 148.861 152.962C148.393 152.05 148.159 150.946 148.159 149.65C148.159 148.69 148.297 147.832 148.573 147.076C148.849 146.308 149.233 145.66 149.725 145.132C150.229 144.604 150.805 144.202 151.453 143.926C152.101 143.65 152.797 143.512 153.541 143.512C154.285 143.512 154.945 143.662 155.521 143.962C156.097 144.25 156.571 144.598 156.943 145.006L155.827 146.284C155.527 145.972 155.191 145.738 154.819 145.582C154.459 145.414 154.051 145.33 153.595 145.33C152.971 145.33 152.407 145.504 151.903 145.852C151.411 146.2 151.021 146.692 150.733 147.328C150.445 147.964 150.301 148.72 150.301 149.596C150.301 150.496 150.439 151.27 150.715 151.918C150.991 152.554 151.381 153.046 151.885 153.394C152.389 153.73 152.977 153.898 153.649 153.898C154.153 153.898 154.603 153.796 154.999 153.592C155.395 153.388 155.755 153.118 156.079 152.782L157.141 154.024C156.661 154.576 156.121 154.996 155.521 155.284C154.921 155.572 154.249 155.716 153.505 155.716ZM158.962 155.5V142.792H161.032V146.068L160.96 147.778C161.332 147.43 161.746 147.124 162.202 146.86C162.658 146.584 163.186 146.446 163.786 146.446C164.734 146.446 165.424 146.752 165.856 147.364C166.288 147.976 166.504 148.84 166.504 149.956V155.5H164.434V150.226C164.434 149.494 164.326 148.978 164.11 148.678C163.894 148.378 163.54 148.228 163.048 148.228C162.664 148.228 162.322 148.324 162.022 148.516C161.734 148.696 161.404 148.966 161.032 149.326V155.5H158.962ZM171.142 155.716C170.626 155.716 170.17 155.608 169.774 155.392C169.378 155.176 169.066 154.876 168.838 154.492C168.622 154.096 168.514 153.64 168.514 153.124C168.514 152.128 168.928 151.378 169.756 150.874C170.596 150.358 171.922 150.004 173.734 149.812C173.722 149.512 173.662 149.236 173.554 148.984C173.458 148.732 173.29 148.534 173.05 148.39C172.822 148.234 172.51 148.156 172.114 148.156C171.682 148.156 171.256 148.234 170.836 148.39C170.428 148.546 170.026 148.744 169.63 148.984L168.874 147.58C169.198 147.376 169.552 147.19 169.936 147.022C170.32 146.842 170.728 146.704 171.16 146.608C171.592 146.5 172.042 146.446 172.51 146.446C173.242 146.446 173.848 146.596 174.328 146.896C174.82 147.184 175.186 147.616 175.426 148.192C175.678 148.756 175.804 149.452 175.804 150.28V155.5H174.094L173.95 154.528H173.878C173.47 154.864 173.044 155.146 172.6 155.374C172.156 155.602 171.67 155.716 171.142 155.716ZM171.79 154.024C172.15 154.024 172.48 153.952 172.78 153.808C173.092 153.652 173.41 153.424 173.734 153.124V151.252C172.93 151.348 172.294 151.474 171.826 151.63C171.358 151.786 171.022 151.978 170.818 152.206C170.626 152.422 170.53 152.68 170.53 152.98C170.53 153.352 170.65 153.622 170.89 153.79C171.13 153.946 171.43 154.024 171.79 154.024ZM178.281 155.5V146.662H180.351V155.5H178.281ZM179.307 145.114C178.947 145.114 178.647 145.006 178.407 144.79C178.179 144.574 178.065 144.286 178.065 143.926C178.065 143.566 178.179 143.284 178.407 143.08C178.647 142.864 178.947 142.756 179.307 142.756C179.679 142.756 179.979 142.864 180.207 143.08C180.435 143.284 180.549 143.566 180.549 143.926C180.549 144.286 180.435 144.574 180.207 144.79C179.979 145.006 179.679 145.114 179.307 145.114ZM182.992 155.5V146.662H184.702L184.846 147.85H184.918C185.314 147.466 185.746 147.136 186.214 146.86C186.682 146.584 187.216 146.446 187.816 146.446C188.764 146.446 189.454 146.752 189.886 147.364C190.318 147.976 190.534 148.84 190.534 149.956V155.5H188.464V150.226C188.464 149.494 188.356 148.978 188.14 148.678C187.924 148.378 187.57 148.228 187.078 148.228C186.694 148.228 186.352 148.324 186.052 148.516C185.764 148.696 185.434 148.966 185.062 149.326V155.5H182.992Z" fill="white"/>
<rect x="215.75" y="126.5" width="115" height="46" rx="23" fill="#C1549C"/>
<circle cx="238.75" cy="149.5" r="16" fill="white"/>
<path d="M239.014 139.499C238.319 139.5 237.625 139.564 236.942 139.692C234.917 140.044 234.548 140.785 234.548 142.149V144.235H239.285V145.288H232.079C231.397 145.236 230.719 145.431 230.17 145.839C229.622 146.247 229.239 146.84 229.093 147.508C228.649 149.077 228.649 150.739 229.093 152.308C229.438 153.708 230.193 154.758 231.585 154.758H233.496V152.075C233.523 151.273 233.849 150.509 234.411 149.936C234.972 149.362 235.728 149.019 236.53 148.975H240.338C240.988 149.004 241.624 148.781 242.114 148.353C242.605 147.924 242.911 147.323 242.969 146.675V142.149C242.963 141.539 242.734 140.952 242.325 140.499C241.916 140.046 241.355 139.758 240.749 139.69C240.178 139.57 239.597 139.506 239.014 139.499ZM236.391 141.604C236.6 141.604 236.801 141.687 236.949 141.835C237.097 141.983 237.18 142.184 237.18 142.394C237.18 142.603 237.097 142.804 236.949 142.952C236.801 143.1 236.6 143.183 236.391 143.183C236.181 143.183 235.981 143.1 235.833 142.952C235.684 142.804 235.601 142.603 235.601 142.394C235.601 142.184 235.684 141.983 235.833 141.835C235.981 141.687 236.181 141.604 236.391 141.604Z" fill="#0277BD"/>
<path d="M238.503 159.498C239.198 159.497 239.891 159.433 240.574 159.305C242.599 158.952 242.968 158.212 242.968 156.847V154.761H238.231V153.709H245.439C246.12 153.761 246.798 153.565 247.347 153.157C247.896 152.749 248.278 152.157 248.424 151.489C248.869 149.92 248.869 148.258 248.424 146.689C248.079 145.289 247.324 144.239 245.931 144.239H244.02V146.925C243.994 147.727 243.667 148.49 243.106 149.064C242.544 149.638 241.788 149.981 240.987 150.025H237.178C236.528 149.996 235.891 150.218 235.401 150.647C234.911 151.075 234.605 151.676 234.546 152.325V156.847C234.553 157.457 234.782 158.044 235.191 158.497C235.6 158.95 236.16 159.237 236.766 159.306C237.338 159.426 237.919 159.49 238.503 159.498ZM241.126 157.393C240.917 157.393 240.716 157.31 240.568 157.162C240.42 157.013 240.337 156.813 240.337 156.603C240.337 156.394 240.42 156.193 240.568 156.045C240.716 155.897 240.917 155.814 241.126 155.814C241.336 155.814 241.537 155.897 241.685 156.045C241.833 156.193 241.916 156.394 241.916 156.603C241.916 156.813 241.833 157.013 241.685 157.162C241.537 157.31 241.336 157.393 241.126 157.393Z" fill="#FFC107"/>
<path d="M264.363 155.5V143.728H268.071C268.947 143.728 269.727 143.842 270.411 144.07C271.095 144.298 271.635 144.676 272.031 145.204C272.427 145.732 272.625 146.452 272.625 147.364C272.625 148.228 272.427 148.942 272.031 149.506C271.647 150.07 271.113 150.49 270.429 150.766C269.757 151.042 268.995 151.18 268.143 151.18H266.451V155.5H264.363ZM266.451 149.506H267.981C268.857 149.506 269.505 149.326 269.925 148.966C270.357 148.606 270.573 148.072 270.573 147.364C270.573 146.62 270.345 146.11 269.889 145.834C269.445 145.546 268.785 145.402 267.909 145.402H266.451V149.506ZM275.254 159.136C275.014 159.136 274.798 159.118 274.606 159.082C274.426 159.046 274.258 158.992 274.102 158.92L274.498 157.372C274.618 157.408 274.726 157.432 274.822 157.444C274.918 157.456 275.014 157.462 275.11 157.462C275.578 157.462 275.95 157.318 276.226 157.03C276.514 156.742 276.73 156.382 276.874 155.95L277.036 155.392L273.562 146.662H275.668L277.198 151C277.33 151.384 277.456 151.792 277.576 152.224C277.708 152.644 277.84 153.064 277.972 153.484H278.044C278.152 153.076 278.26 152.662 278.368 152.242C278.488 151.81 278.602 151.396 278.71 151L280.042 146.662H282.04L278.836 155.896C278.596 156.556 278.32 157.126 278.008 157.606C277.696 158.098 277.318 158.476 276.874 158.74C276.43 159.004 275.89 159.136 275.254 159.136ZM286.686 155.68C285.666 155.68 284.94 155.386 284.508 154.798C284.088 154.198 283.878 153.424 283.878 152.476V148.3H282.618V146.752L283.986 146.662L284.238 143.89H285.966V146.662H288.216V148.3H285.966V152.476C285.966 152.992 286.068 153.382 286.272 153.646C286.476 153.898 286.788 154.024 287.208 154.024C287.364 154.024 287.52 154.012 287.676 153.988C287.832 153.964 287.982 153.916 288.126 153.844L288.504 155.302C288.276 155.41 288.006 155.5 287.694 155.572C287.382 155.644 287.046 155.68 286.686 155.68ZM290.076 155.5V142.792H292.146V146.068L292.074 147.778C292.446 147.43 292.86 147.124 293.316 146.86C293.772 146.584 294.3 146.446 294.9 146.446C295.848 146.446 296.538 146.752 296.97 147.364C297.402 147.976 297.618 148.84 297.618 149.956V155.5H295.548V150.226C295.548 149.494 295.44 148.978 295.224 148.678C295.008 148.378 294.654 148.228 294.162 148.228C293.778 148.228 293.436 148.324 293.136 148.516C292.848 148.696 292.518 148.966 292.146 149.326V155.5H290.076ZM303.731 155.716C302.999 155.716 302.315 155.536 301.679 155.176C301.043 154.804 300.527 154.276 300.131 153.592C299.735 152.896 299.537 152.062 299.537 151.09C299.537 150.106 299.735 149.272 300.131 148.588C300.527 147.892 301.043 147.364 301.679 147.004C302.315 146.632 302.999 146.446 303.731 146.446C304.475 146.446 305.165 146.632 305.801 147.004C306.437 147.364 306.953 147.892 307.349 148.588C307.745 149.272 307.943 150.106 307.943 151.09C307.943 152.062 307.745 152.896 307.349 153.592C306.953 154.276 306.437 154.804 305.801 155.176C305.165 155.536 304.475 155.716 303.731 155.716ZM303.731 154.024C304.163 154.024 304.535 153.904 304.847 153.664C305.159 153.424 305.399 153.082 305.567 152.638C305.735 152.194 305.819 151.678 305.819 151.09C305.819 150.502 305.735 149.986 305.567 149.542C305.399 149.098 305.159 148.756 304.847 148.516C304.535 148.264 304.163 148.138 303.731 148.138C303.299 148.138 302.927 148.264 302.615 148.516C302.315 148.756 302.081 149.098 301.913 149.542C301.745 149.986 301.661 150.502 301.661 151.09C301.661 151.678 301.745 152.194 301.913 152.638C302.081 153.082 302.315 153.424 302.615 153.664C302.927 153.904 303.299 154.024 303.731 154.024ZM309.992 155.5V146.662H311.702L311.846 147.85H311.918C312.314 147.466 312.746 147.136 313.214 146.86C313.682 146.584 314.216 146.446 314.816 146.446C315.764 146.446 316.454 146.752 316.886 147.364C317.318 147.976 317.534 148.84 317.534 149.956V155.5H315.464V150.226C315.464 149.494 315.356 148.978 315.14 148.678C314.924 148.378 314.57 148.228 314.078 148.228C313.694 148.228 313.352 148.324 313.052 148.516C312.764 148.696 312.434 148.966 312.062 149.326V155.5H309.992Z" fill="white"/>
<rect x="343" y="127" width="120" height="46" rx="23" fill="#F3F5F7"/>
<rect y="69" width="98" height="46" rx="23" fill="#F3F5F7"/>
<rect x="110" y="68.5" width="219" height="46" rx="23" fill="#8B5EAF"/>
<circle cx="133" cy="91.5" r="16" fill="white"/>
<path d="M143 91.75C143 90.87 142.49 90.12 141.755 89.75C141.905 89.445 142 89.11 142 88.75C142 87.545 141.05 86.57 139.86 86.51C140.06 85.955 140.09 85.315 139.655 84.605C139.465 84.295 139.205 84.035 138.895 83.845C138.185 83.41 137.545 83.44 136.99 83.64C136.93 82.45 135.955 81.5 134.75 81.5C134.32 81.5 133.92 81.625 133.58 81.835C133.555 81.85 133.525 81.865 133.5 81.875C133.345 81.96 133.17 82 133 82C132.83 82 132.655 81.96 132.5 81.875C132.475 81.865 132.445 81.85 132.42 81.835C132.08 81.625 131.68 81.5 131.25 81.5C130.045 81.5 129.07 82.45 129.01 83.64C128.455 83.44 127.815 83.41 127.105 83.845C126.795 84.035 126.535 84.295 126.345 84.605C125.91 85.315 125.94 85.955 126.14 86.51C124.95 86.57 124 87.545 124 88.75C124 89.11 124.095 89.445 124.245 89.75C123.51 90.12 123 90.87 123 91.75C123 92.47 123.345 93.105 123.87 93.515C123.64 93.87 123.5 94.295 123.5 94.75C123.5 95.565 123.935 96.27 124.585 96.665C124.535 96.855 124.5 97.045 124.5 97.25C124.5 98.495 125.505 99.5 126.75 99.5C126.915 99.5 127.075 99.48 127.23 99.445C127.705 100.65 128.88 101.5 130.25 101.5C131.045 101.5 131.77 101.215 132.335 100.74C132.385 100.695 132.44 100.66 132.5 100.63C132.655 100.54 132.825 100.5 133 100.5C133.175 100.5 133.345 100.54 133.5 100.63C133.56 100.66 133.615 100.695 133.665 100.74C134.23 101.215 134.955 101.5 135.75 101.5C137.12 101.5 138.295 100.65 138.77 99.445C138.925 99.48 139.085 99.5 139.25 99.5C140.495 99.5 141.5 98.495 141.5 97.25C141.5 97.045 141.465 96.855 141.415 96.665C142.065 96.27 142.5 95.565 142.5 94.75C142.5 94.295 142.36 93.87 142.13 93.515C142.655 93.105 143 92.47 143 91.75Z" fill="#18B7E9"/>
<path d="M129 85.5H137V86.5H129V85.5ZM131 98H130V96H126V93H127V95H131V98Z" fill="#B5E4FF"/>
<path d="M129 85C128.735 85 128.48 85.1054 128.293 85.2929C128.105 85.4804 128 85.7348 128 86C128 86.2652 128.105 86.5196 128.293 86.7071C128.48 86.8946 128.735 87 129 87C129.265 87 129.52 86.8946 129.707 86.7071C129.895 86.5196 130 86.2652 130 86C130 85.7348 129.895 85.4804 129.707 85.2929C129.52 85.1054 129.265 85 129 85ZM126.5 92C126.235 92 125.98 92.1053 125.793 92.2929C125.605 92.4804 125.5 92.7348 125.5 93C125.5 93.2652 125.605 93.5196 125.793 93.7071C125.98 93.8946 126.235 94 126.5 94C126.765 94 127.02 93.8946 127.207 93.7071C127.395 93.5196 127.5 93.2652 127.5 93C127.5 92.7348 127.395 92.4804 127.207 92.2929C127.02 92.1053 126.765 92 126.5 92ZM130.5 97C130.235 97 129.98 97.1054 129.793 97.2929C129.605 97.4804 129.5 97.7348 129.5 98C129.5 98.2652 129.605 98.5196 129.793 98.7071C129.98 98.8946 130.235 99 130.5 99C130.765 99 131.02 98.8946 131.207 98.7071C131.395 98.5196 131.5 98.2652 131.5 98C131.5 97.7348 131.395 97.4804 131.207 97.2929C131.02 97.1054 130.765 97 130.5 97Z" fill="#FFECA8"/>
<path d="M136 98H135V95H139V93H140V96H136V98Z" fill="#B5E4FF"/>
<path d="M139.5 92C139.235 92 138.98 92.1053 138.793 92.2929C138.605 92.4804 138.5 92.7348 138.5 93C138.5 93.2652 138.605 93.5196 138.793 93.7071C138.98 93.8946 139.235 94 139.5 94C139.765 94 140.02 93.8946 140.207 93.7071C140.395 93.5196 140.5 93.2652 140.5 93C140.5 92.7348 140.395 92.4804 140.207 92.2929C140.02 92.1053 139.765 92 139.5 92ZM135.5 97C135.235 97 134.98 97.1054 134.793 97.2929C134.605 97.4804 134.5 97.7348 134.5 98C134.5 98.2652 134.605 98.5196 134.793 98.7071C134.98 98.8946 135.235 99 135.5 99C135.765 99 136.02 98.8946 136.207 98.7071C136.395 98.5196 136.5 98.2652 136.5 98C136.5 97.7348 136.395 97.4804 136.207 97.2929C136.02 97.1054 135.765 97 135.5 97ZM136.5 85C136.235 85 135.98 85.1054 135.793 85.2929C135.605 85.4804 135.5 85.7348 135.5 86C135.5 86.2652 135.605 86.5196 135.793 86.7071C135.98 86.8946 136.235 87 136.5 87C136.765 87 137.02 86.8946 137.207 86.7071C137.395 86.5196 137.5 86.2652 137.5 86C137.5 85.7348 137.395 85.4804 137.207 85.2929C137.02 85.1054 136.765 85 136.5 85Z" fill="#FFECA8"/>
<path d="M133.5 81.875V100.63C133.345 100.54 133.175 100.5 133 100.5C132.825 100.5 132.655 100.54 132.5 100.63V81.875C132.655 81.96 132.83 82 133 82C133.17 82 133.345 81.96 133.5 81.875Z" fill="#1399C4"/>
<path d="M131 92.5H130V90H127.5V89H131V92.5Z" fill="#B5E4FF"/>
<path d="M130.5 91.5C130.235 91.5 129.98 91.6054 129.793 91.7929C129.605 91.9804 129.5 92.2348 129.5 92.5C129.5 92.7652 129.605 93.0196 129.793 93.2071C129.98 93.3946 130.235 93.5 130.5 93.5C130.765 93.5 131.02 93.3946 131.207 93.2071C131.395 93.0196 131.5 92.7652 131.5 92.5C131.5 92.2348 131.395 91.9804 131.207 91.7929C131.02 91.6054 130.765 91.5 130.5 91.5ZM127.5 88.5C127.235 88.5 126.98 88.6054 126.793 88.7929C126.605 88.9804 126.5 89.2348 126.5 89.5C126.5 89.7652 126.605 90.0196 126.793 90.2071C126.98 90.3946 127.235 90.5 127.5 90.5C127.765 90.5 128.02 90.3946 128.207 90.2071C128.395 90.0196 128.5 89.7652 128.5 89.5C128.5 89.2348 128.395 88.9804 128.207 88.7929C128.02 88.6054 127.765 88.5 127.5 88.5Z" fill="#FFECA8"/>
<path d="M136 92.5H135V89H138.5V90H136V92.5Z" fill="#B5E4FF"/>
<path d="M135.5 91.5C135.235 91.5 134.98 91.6054 134.793 91.7929C134.605 91.9804 134.5 92.2348 134.5 92.5C134.5 92.7652 134.605 93.0196 134.793 93.2071C134.98 93.3946 135.235 93.5 135.5 93.5C135.765 93.5 136.02 93.3946 136.207 93.2071C136.395 93.0196 136.5 92.7652 136.5 92.5C136.5 92.2348 136.395 91.9804 136.207 91.7929C136.02 91.6054 135.765 91.5 135.5 91.5ZM138.5 88.5C138.235 88.5 137.98 88.6054 137.793 88.7929C137.605 88.9804 137.5 89.2348 137.5 89.5C137.5 89.7652 137.605 90.0196 137.793 90.2071C137.98 90.3946 138.235 90.5 138.5 90.5C138.765 90.5 139.02 90.3946 139.207 90.2071C139.395 90.0196 139.5 89.7652 139.5 89.5C139.5 89.2348 139.395 88.9804 139.207 88.7929C139.02 88.6054 138.765 88.5 138.5 88.5Z" fill="#FFECA8"/>
<path d="M161.472 91.236L161.058 92.676H164.064L163.65 91.236C163.458 90.612 163.272 89.97 163.092 89.31C162.924 88.65 162.756 87.996 162.588 87.348H162.516C162.36 88.008 162.192 88.668 162.012 89.328C161.844 89.976 161.664 90.612 161.472 91.236ZM157.53 97.5L161.364 85.728H163.812L167.646 97.5H165.45L164.532 94.314H160.572L159.654 97.5H157.53ZM168.918 97.5V88.662H170.628L170.772 90.228H170.844C171.156 89.652 171.534 89.214 171.978 88.914C172.422 88.602 172.878 88.446 173.346 88.446C173.766 88.446 174.102 88.506 174.354 88.626L173.994 90.426C173.838 90.378 173.694 90.342 173.562 90.318C173.43 90.294 173.268 90.282 173.076 90.282C172.728 90.282 172.362 90.42 171.978 90.696C171.594 90.96 171.264 91.428 170.988 92.1V97.5H168.918ZM178.746 97.716C177.726 97.716 177 97.422 176.568 96.834C176.148 96.234 175.938 95.46 175.938 94.512V90.3H174.678V88.752L176.046 88.662L176.298 86.25H178.026V88.662H180.276V90.3H178.026V94.512C178.026 95.544 178.44 96.06 179.268 96.06C179.424 96.06 179.586 96.042 179.754 96.006C179.922 95.958 180.066 95.91 180.186 95.862L180.546 97.392C180.306 97.476 180.03 97.548 179.718 97.608C179.418 97.68 179.094 97.716 178.746 97.716ZM182.136 97.5V88.662H184.206V97.5H182.136ZM183.18 87.114C182.808 87.114 182.508 87.006 182.28 86.79C182.052 86.574 181.938 86.286 181.938 85.926C181.938 85.578 182.052 85.296 182.28 85.08C182.508 84.864 182.808 84.756 183.18 84.756C183.552 84.756 183.852 84.864 184.08 85.08C184.308 85.296 184.422 85.578 184.422 85.926C184.422 86.286 184.308 86.574 184.08 86.79C183.852 87.006 183.552 87.114 183.18 87.114ZM187.207 97.5V90.3H186.019V88.752L187.207 88.662V87.744C187.207 86.82 187.435 86.064 187.891 85.476C188.347 84.876 189.097 84.576 190.141 84.576C190.453 84.576 190.753 84.606 191.041 84.666C191.329 84.726 191.569 84.798 191.761 84.882L191.365 86.43C191.041 86.286 190.717 86.214 190.393 86.214C189.649 86.214 189.277 86.712 189.277 87.708V88.662H191.005V90.3H189.277V97.5H187.207ZM192.56 97.5V88.662H194.63V97.5H192.56ZM193.604 87.114C193.232 87.114 192.932 87.006 192.704 86.79C192.476 86.574 192.362 86.286 192.362 85.926C192.362 85.578 192.476 85.296 192.704 85.08C192.932 84.864 193.232 84.756 193.604 84.756C193.976 84.756 194.276 84.864 194.504 85.08C194.732 85.296 194.846 85.578 194.846 85.926C194.846 86.286 194.732 86.574 194.504 86.79C194.276 87.006 193.976 87.114 193.604 87.114ZM200.961 97.716C200.157 97.716 199.431 97.536 198.783 97.176C198.147 96.804 197.637 96.276 197.253 95.592C196.881 94.896 196.695 94.062 196.695 93.09C196.695 92.106 196.899 91.272 197.307 90.588C197.715 89.892 198.255 89.364 198.927 89.004C199.611 88.632 200.343 88.446 201.123 88.446C201.687 88.446 202.179 88.542 202.599 88.734C203.019 88.926 203.391 89.16 203.715 89.436L202.707 90.786C202.479 90.582 202.245 90.426 202.005 90.318C201.765 90.198 201.507 90.138 201.231 90.138C200.523 90.138 199.941 90.408 199.485 90.948C199.041 91.488 198.819 92.202 198.819 93.09C198.819 93.966 199.035 94.674 199.467 95.214C199.911 95.754 200.481 96.024 201.177 96.024C201.525 96.024 201.849 95.952 202.149 95.808C202.461 95.652 202.743 95.472 202.995 95.268L203.841 96.636C203.433 96.996 202.977 97.266 202.473 97.446C201.969 97.626 201.465 97.716 200.961 97.716ZM205.585 97.5V88.662H207.655V97.5H205.585ZM206.629 87.114C206.257 87.114 205.957 87.006 205.729 86.79C205.501 86.574 205.387 86.286 205.387 85.926C205.387 85.578 205.501 85.296 205.729 85.08C205.957 84.864 206.257 84.756 206.629 84.756C207.001 84.756 207.301 84.864 207.529 85.08C207.757 85.296 207.871 85.578 207.871 85.926C207.871 86.286 207.757 86.574 207.529 86.79C207.301 87.006 207.001 87.114 206.629 87.114ZM212.438 97.716C211.67 97.716 211.04 97.476 210.548 96.996C210.068 96.516 209.828 95.892 209.828 95.124C209.828 94.176 210.242 93.444 211.07 92.928C211.898 92.4 213.218 92.04 215.03 91.848C215.018 91.38 214.892 90.978 214.652 90.642C214.424 90.294 214.01 90.12 213.41 90.12C212.978 90.12 212.552 90.204 212.132 90.372C211.724 90.54 211.322 90.744 210.926 90.984L210.17 89.598C210.662 89.286 211.214 89.016 211.826 88.788C212.45 88.56 213.11 88.446 213.806 88.446C214.91 88.446 215.732 88.776 216.272 89.436C216.824 90.084 217.1 91.026 217.1 92.262V97.5H215.39L215.246 96.528H215.174C214.778 96.864 214.352 97.146 213.896 97.374C213.452 97.602 212.966 97.716 212.438 97.716ZM213.104 96.096C213.464 96.096 213.788 96.012 214.076 95.844C214.376 95.664 214.694 95.424 215.03 95.124V93.144C213.83 93.3 212.996 93.534 212.528 93.846C212.06 94.146 211.826 94.518 211.826 94.962C211.826 95.358 211.946 95.646 212.186 95.826C212.426 96.006 212.732 96.096 213.104 96.096ZM221.594 97.716C220.862 97.716 220.34 97.494 220.028 97.05C219.728 96.606 219.578 96 219.578 95.232V84.792H221.648V95.34C221.648 95.592 221.696 95.772 221.792 95.88C221.888 95.976 221.99 96.024 222.098 96.024C222.146 96.024 222.188 96.024 222.224 96.024C222.272 96.012 222.338 96 222.422 95.988L222.692 97.536C222.572 97.584 222.416 97.626 222.224 97.662C222.044 97.698 221.834 97.716 221.594 97.716ZM228.248 97.5V85.728H230.336V97.5H228.248ZM233.148 97.5V88.662H234.858L235.002 89.85H235.074C235.47 89.466 235.902 89.136 236.37 88.86C236.838 88.584 237.372 88.446 237.972 88.446C238.92 88.446 239.61 88.752 240.042 89.364C240.474 89.976 240.69 90.84 240.69 91.956V97.5H238.62V92.226C238.62 91.494 238.512 90.978 238.296 90.678C238.08 90.378 237.726 90.228 237.234 90.228C236.85 90.228 236.508 90.324 236.208 90.516C235.92 90.696 235.59 90.966 235.218 91.326V97.5H233.148ZM246.334 97.716C245.314 97.716 244.588 97.422 244.156 96.834C243.736 96.234 243.526 95.46 243.526 94.512V90.3H242.266V88.752L243.634 88.662L243.886 86.25H245.614V88.662H247.864V90.3H245.614V94.512C245.614 95.544 246.028 96.06 246.856 96.06C247.012 96.06 247.174 96.042 247.342 96.006C247.51 95.958 247.654 95.91 247.774 95.862L248.134 97.392C247.894 97.476 247.618 97.548 247.306 97.608C247.006 97.68 246.682 97.716 246.334 97.716ZM253.223 97.716C252.407 97.716 251.669 97.536 251.009 97.176C250.349 96.804 249.827 96.276 249.443 95.592C249.059 94.896 248.867 94.062 248.867 93.09C248.867 92.13 249.059 91.302 249.443 90.606C249.839 89.91 250.349 89.376 250.973 89.004C251.597 88.632 252.251 88.446 252.935 88.446C253.739 88.446 254.411 88.626 254.951 88.986C255.491 89.334 255.899 89.826 256.175 90.462C256.451 91.086 256.589 91.812 256.589 92.64C256.589 93.072 256.559 93.408 256.499 93.648H250.883C250.979 94.428 251.261 95.034 251.729 95.466C252.197 95.898 252.785 96.114 253.493 96.114C253.877 96.114 254.231 96.06 254.555 95.952C254.891 95.832 255.221 95.67 255.545 95.466L256.247 96.762C255.827 97.038 255.359 97.266 254.843 97.446C254.327 97.626 253.787 97.716 253.223 97.716ZM250.865 92.244H254.789C254.789 91.56 254.639 91.026 254.339 90.642C254.039 90.246 253.589 90.048 252.989 90.048C252.473 90.048 252.011 90.24 251.603 90.624C251.207 90.996 250.961 91.536 250.865 92.244ZM260.582 97.716C259.85 97.716 259.328 97.494 259.016 97.05C258.716 96.606 258.566 96 258.566 95.232V84.792H260.636V95.34C260.636 95.592 260.684 95.772 260.78 95.88C260.876 95.976 260.978 96.024 261.086 96.024C261.134 96.024 261.176 96.024 261.212 96.024C261.26 96.012 261.326 96 261.41 95.988L261.68 97.536C261.56 97.584 261.404 97.626 261.212 97.662C261.032 97.698 260.822 97.716 260.582 97.716ZM265.469 97.716C264.737 97.716 264.215 97.494 263.903 97.05C263.603 96.606 263.453 96 263.453 95.232V84.792H265.523V95.34C265.523 95.592 265.571 95.772 265.667 95.88C265.763 95.976 265.865 96.024 265.973 96.024C266.021 96.024 266.063 96.024 266.099 96.024C266.147 96.012 266.213 96 266.297 95.988L266.567 97.536C266.447 97.584 266.291 97.626 266.099 97.662C265.919 97.698 265.709 97.716 265.469 97.716ZM268.339 97.5V88.662H270.409V97.5H268.339ZM269.383 87.114C269.011 87.114 268.711 87.006 268.483 86.79C268.255 86.574 268.141 86.286 268.141 85.926C268.141 85.578 268.255 85.296 268.483 85.08C268.711 84.864 269.011 84.756 269.383 84.756C269.755 84.756 270.055 84.864 270.283 85.08C270.511 85.296 270.625 85.578 270.625 85.926C270.625 86.286 270.511 86.574 270.283 86.79C270.055 87.006 269.755 87.114 269.383 87.114ZM276.128 101.406C275.432 101.406 274.802 101.322 274.238 101.154C273.686 100.986 273.248 100.728 272.924 100.38C272.612 100.044 272.456 99.618 272.456 99.102C272.456 98.37 272.876 97.74 273.716 97.212V97.14C273.488 96.996 273.296 96.804 273.14 96.564C272.996 96.324 272.924 96.024 272.924 95.664C272.924 95.316 273.02 95.004 273.212 94.728C273.416 94.44 273.644 94.206 273.896 94.026V93.954C273.596 93.726 273.326 93.408 273.086 93C272.858 92.592 272.744 92.13 272.744 91.614C272.744 90.93 272.906 90.354 273.23 89.886C273.554 89.418 273.98 89.064 274.508 88.824C275.048 88.572 275.624 88.446 276.236 88.446C276.476 88.446 276.704 88.47 276.92 88.518C277.148 88.554 277.352 88.602 277.532 88.662H280.7V90.192H279.08C279.224 90.36 279.344 90.576 279.44 90.84C279.536 91.092 279.584 91.374 279.584 91.686C279.584 92.334 279.434 92.886 279.134 93.342C278.834 93.786 278.432 94.122 277.928 94.35C277.424 94.578 276.86 94.692 276.236 94.692C276.044 94.692 275.846 94.674 275.642 94.638C275.438 94.602 275.234 94.542 275.03 94.458C274.898 94.578 274.79 94.698 274.706 94.818C274.634 94.938 274.598 95.1 274.598 95.304C274.598 95.556 274.7 95.754 274.904 95.898C275.12 96.042 275.498 96.114 276.038 96.114H277.604C278.672 96.114 279.476 96.288 280.016 96.636C280.568 96.972 280.844 97.524 280.844 98.292C280.844 98.868 280.652 99.39 280.268 99.858C279.884 100.338 279.338 100.716 278.63 100.992C277.922 101.268 277.088 101.406 276.128 101.406ZM276.236 93.396C276.656 93.396 277.016 93.24 277.316 92.928C277.616 92.616 277.766 92.178 277.766 91.614C277.766 91.062 277.616 90.636 277.316 90.336C277.028 90.024 276.668 89.868 276.236 89.868C275.804 89.868 275.438 90.018 275.138 90.318C274.838 90.618 274.688 91.05 274.688 91.614C274.688 92.178 274.838 92.616 275.138 92.928C275.438 93.24 275.804 93.396 276.236 93.396ZM276.452 100.056C277.16 100.056 277.736 99.912 278.18 99.624C278.624 99.336 278.846 99.006 278.846 98.634C278.846 98.286 278.708 98.052 278.432 97.932C278.168 97.812 277.784 97.752 277.28 97.752H276.074C275.594 97.752 275.192 97.71 274.868 97.626C274.412 97.974 274.184 98.364 274.184 98.796C274.184 99.192 274.388 99.498 274.796 99.714C275.204 99.942 275.756 100.056 276.452 100.056ZM285.901 97.716C285.085 97.716 284.347 97.536 283.687 97.176C283.027 96.804 282.505 96.276 282.121 95.592C281.737 94.896 281.545 94.062 281.545 93.09C281.545 92.13 281.737 91.302 282.121 90.606C282.517 89.91 283.027 89.376 283.651 89.004C284.275 88.632 284.929 88.446 285.613 88.446C286.417 88.446 287.089 88.626 287.629 88.986C288.169 89.334 288.577 89.826 288.853 90.462C289.129 91.086 289.267 91.812 289.267 92.64C289.267 93.072 289.237 93.408 289.177 93.648H283.561C283.657 94.428 283.939 95.034 284.407 95.466C284.875 95.898 285.463 96.114 286.171 96.114C286.555 96.114 286.909 96.06 287.233 95.952C287.569 95.832 287.899 95.67 288.223 95.466L288.925 96.762C288.505 97.038 288.037 97.266 287.521 97.446C287.005 97.626 286.465 97.716 285.901 97.716ZM283.543 92.244H287.467C287.467 91.56 287.317 91.026 287.017 90.642C286.717 90.246 286.267 90.048 285.667 90.048C285.151 90.048 284.689 90.24 284.281 90.624C283.885 90.996 283.639 91.536 283.543 92.244ZM291.244 97.5V88.662H292.954L293.098 89.85H293.17C293.566 89.466 293.998 89.136 294.466 88.86C294.934 88.584 295.468 88.446 296.068 88.446C297.016 88.446 297.706 88.752 298.138 89.364C298.57 89.976 298.786 90.84 298.786 91.956V97.5H296.716V92.226C296.716 91.494 296.608 90.978 296.392 90.678C296.176 90.378 295.822 90.228 295.33 90.228C294.946 90.228 294.604 90.324 294.304 90.516C294.016 90.696 293.686 90.966 293.314 91.326V97.5H291.244ZM305.006 97.716C304.202 97.716 303.476 97.536 302.828 97.176C302.192 96.804 301.682 96.276 301.298 95.592C300.926 94.896 300.74 94.062 300.74 93.09C300.74 92.106 300.944 91.272 301.352 90.588C301.76 89.892 302.3 89.364 302.972 89.004C303.656 88.632 304.388 88.446 305.168 88.446C305.732 88.446 306.224 88.542 306.644 88.734C307.064 88.926 307.436 89.16 307.76 89.436L306.752 90.786C306.524 90.582 306.29 90.426 306.05 90.318C305.81 90.198 305.552 90.138 305.276 90.138C304.568 90.138 303.986 90.408 303.53 90.948C303.086 91.488 302.864 92.202 302.864 93.09C302.864 93.966 303.08 94.674 303.512 95.214C303.956 95.754 304.526 96.024 305.222 96.024C305.57 96.024 305.894 95.952 306.194 95.808C306.506 95.652 306.788 95.472 307.04 95.268L307.886 96.636C307.478 96.996 307.022 97.266 306.518 97.446C306.014 97.626 305.51 97.716 305.006 97.716ZM312.971 97.716C312.155 97.716 311.417 97.536 310.757 97.176C310.097 96.804 309.575 96.276 309.191 95.592C308.807 94.896 308.615 94.062 308.615 93.09C308.615 92.13 308.807 91.302 309.191 90.606C309.587 89.91 310.097 89.376 310.721 89.004C311.345 88.632 311.999 88.446 312.683 88.446C313.487 88.446 314.159 88.626 314.699 88.986C315.239 89.334 315.647 89.826 315.923 90.462C316.199 91.086 316.337 91.812 316.337 92.64C316.337 93.072 316.307 93.408 316.247 93.648H310.631C310.727 94.428 311.009 95.034 311.477 95.466C311.945 95.898 312.533 96.114 313.241 96.114C313.625 96.114 313.979 96.06 314.303 95.952C314.639 95.832 314.969 95.67 315.293 95.466L315.995 96.762C315.575 97.038 315.107 97.266 314.591 97.446C314.075 97.626 313.535 97.716 312.971 97.716ZM310.613 92.244H314.537C314.537 91.56 314.387 91.026 314.087 90.642C313.787 90.246 313.337 90.048 312.737 90.048C312.221 90.048 311.759 90.24 311.351 90.624C310.955 90.996 310.709 91.536 310.613 92.244Z" fill="white"/>
<rect x="341" y="68.5" width="96" height="46" rx="23" fill="#FF6E8D"/>
<circle cx="364" cy="91.5" r="16" fill="white"/>
<path d="M363.819 91.993C363.221 91.0451 362.718 90.0401 362.319 88.993C361.388 86.659 367.994 84.55 365.312 80.499C366.473 83.299 361.145 85.028 360.65 87.359C360.2 89.499 363.812 91.993 363.819 91.993Z" fill="#F44336"/>
<path d="M363.945 87.7995C363.839 89.1834 365.171 89.9205 365.209 90.9315C365.182 91.2233 365.097 91.5069 364.96 91.7659C364.823 92.025 364.635 92.2542 364.409 92.4405C364.835 92.3515 365.234 92.1653 365.575 91.8964C365.916 91.6275 366.191 91.2832 366.377 90.8904C366.897 89.4964 365.368 88.5424 365.526 87.4264C365.673 86.3604 368.843 84.3774 368.843 84.3774C368.843 84.3774 364.183 84.6854 363.945 87.7995Z" fill="#F44336"/>
<path d="M368.457 92.0789C368.647 92.0158 368.848 91.9952 369.046 92.0186C369.245 92.042 369.436 92.1089 369.605 92.2143C369.775 92.3198 369.92 92.4614 370.028 92.6289C370.137 92.7965 370.208 92.986 370.235 93.1839C370.235 94.784 368.023 96.284 368.023 96.284C368.023 96.284 371.447 95.876 371.447 93.2559C371.447 91.5279 369.766 91.0989 368.457 92.0789ZM366.832 93.3659C366.832 93.3659 367.9 92.6049 368.184 92.3199C365.564 92.876 359.584 92.951 359.584 92.468C359.584 92.0229 361.513 91.568 361.513 91.568C361.513 91.568 357.238 91.5059 357.238 92.768C357.237 94.0809 362.833 94.175 366.832 93.3659Z" fill="#1565C0"/>
<path d="M366.175 94.5631C363.695 95.3871 359.127 95.1241 360.48 94.0171C359.821 94.0171 358.844 94.5471 358.844 95.056C358.844 96.0771 363.784 96.8661 367.444 95.371L366.175 94.5631Z" fill="#1565C0"/>
<path d="M361.09 96.3052C360.19 96.3052 359.608 96.8852 359.608 97.3052C359.608 98.6202 364.976 98.7532 367.103 97.4182L365.751 96.5182C364.162 97.2212 360.171 97.3172 361.09 96.3052Z" fill="#1565C0"/>
<path d="M370.766 98.4459C370.766 97.9309 370.186 97.6889 369.978 97.5729C371.203 100.528 357.704 100.299 357.704 98.5539C357.704 98.1539 358.698 97.7689 359.616 97.9539L358.835 97.4929C357.005 97.2059 355.762 98.0109 355.762 98.6599C355.762 101.685 370.766 101.539 370.766 98.4459Z" fill="#1565C0"/>
<path d="M372.261 99.5308C369.981 101.783 364.199 102.604 358.384 101.212C364.198 103.689 372.233 102.294 372.261 99.5308Z" fill="#1565C0"/>
<path d="M392.798 97.716C392.03 97.716 391.364 97.554 390.8 97.23C390.248 96.894 389.798 96.378 389.45 95.682L390.8 94.764C391.004 95.136 391.262 95.418 391.574 95.61C391.898 95.802 392.246 95.898 392.618 95.898C393.206 95.898 393.638 95.724 393.914 95.376C394.202 95.028 394.346 94.422 394.346 93.558V85.728H396.434V93.738C396.434 94.47 396.308 95.136 396.056 95.736C395.804 96.336 395.408 96.816 394.868 97.176C394.34 97.536 393.65 97.716 392.798 97.716ZM401.333 97.716C400.817 97.716 400.361 97.608 399.965 97.392C399.569 97.176 399.257 96.876 399.029 96.492C398.813 96.096 398.705 95.64 398.705 95.124C398.705 94.128 399.119 93.378 399.947 92.874C400.787 92.358 402.113 92.004 403.925 91.812C403.913 91.512 403.853 91.236 403.745 90.984C403.649 90.732 403.481 90.534 403.241 90.39C403.013 90.234 402.701 90.156 402.305 90.156C401.873 90.156 401.447 90.234 401.027 90.39C400.619 90.546 400.217 90.744 399.821 90.984L399.065 89.58C399.389 89.376 399.743 89.19 400.127 89.022C400.511 88.842 400.919 88.704 401.351 88.608C401.783 88.5 402.233 88.446 402.701 88.446C403.433 88.446 404.039 88.596 404.519 88.896C405.011 89.184 405.377 89.616 405.617 90.192C405.869 90.756 405.995 91.452 405.995 92.28V97.5H404.285L404.141 96.528H404.069C403.661 96.864 403.235 97.146 402.791 97.374C402.347 97.602 401.861 97.716 401.333 97.716ZM401.981 96.024C402.341 96.024 402.671 95.952 402.971 95.808C403.283 95.652 403.601 95.424 403.925 95.124V93.252C403.121 93.348 402.485 93.474 402.017 93.63C401.549 93.786 401.213 93.978 401.009 94.206C400.817 94.422 400.721 94.68 400.721 94.98C400.721 95.352 400.841 95.622 401.081 95.79C401.321 95.946 401.621 96.024 401.981 96.024ZM410.452 97.5L407.374 88.662H409.48L410.884 93.252C411.004 93.672 411.124 94.11 411.244 94.566C411.376 95.01 411.502 95.46 411.622 95.916H411.694C411.826 95.46 411.952 95.01 412.072 94.566C412.204 94.11 412.33 93.672 412.45 93.252L413.854 88.662H415.852L412.846 97.5H410.452ZM419.175 97.716C418.659 97.716 418.203 97.608 417.807 97.392C417.411 97.176 417.099 96.876 416.871 96.492C416.655 96.096 416.547 95.64 416.547 95.124C416.547 94.128 416.961 93.378 417.789 92.874C418.629 92.358 419.955 92.004 421.767 91.812C421.755 91.512 421.695 91.236 421.587 90.984C421.491 90.732 421.323 90.534 421.083 90.39C420.855 90.234 420.543 90.156 420.147 90.156C419.715 90.156 419.289 90.234 418.869 90.39C418.461 90.546 418.059 90.744 417.663 90.984L416.907 89.58C417.231 89.376 417.585 89.19 417.969 89.022C418.353 88.842 418.761 88.704 419.193 88.608C419.625 88.5 420.075 88.446 420.543 88.446C421.275 88.446 421.881 88.596 422.361 88.896C422.853 89.184 423.219 89.616 423.459 90.192C423.711 90.756 423.837 91.452 423.837 92.28V97.5H422.127L421.983 96.528H421.911C421.503 96.864 421.077 97.146 420.633 97.374C420.189 97.602 419.703 97.716 419.175 97.716ZM419.823 96.024C420.183 96.024 420.513 95.952 420.813 95.808C421.125 95.652 421.443 95.424 421.767 95.124V93.252C420.963 93.348 420.327 93.474 419.859 93.63C419.391 93.786 419.055 93.978 418.851 94.206C418.659 94.422 418.563 94.68 418.563 94.98C418.563 95.352 418.683 95.622 418.923 95.79C419.163 95.946 419.463 96.024 419.823 96.024Z" fill="white"/>
</svg>
