<svg width="43" height="43" viewBox="0 0 43 43" fill="none" xmlns="http://www.w3.org/2000/svg">
<ellipse cx="21.3438" cy="21.3437" rx="21.3438" ry="21.3437" fill="#F3F5F7"/>
<path fill-rule="evenodd" clip-rule="evenodd" d="M28.001 11H13.999C13.447 11 12.9758 11.1952 12.5855 11.5855C12.1952 11.9758 12 12.447 12 12.999V25.001C12 25.553 12.1952 26.0242 12.5855 26.4145C12.9758 26.8048 13.447 27 13.999 27H28.001C28.553 27 29.0242 26.8048 29.4145 26.4145C29.8048 26.0242 30 25.553 30 25.001V12.999C30 12.447 29.8048 11.9758 29.4145 11.5855C29.0242 11.1952 28.553 11 28.001 11ZM14 13V25H28V13H14Z" fill="#1E2022"/>
<path fill-rule="evenodd" clip-rule="evenodd" d="M28.001 11H13.999C13.447 11 12.9758 11.1952 12.5855 11.5855C12.1952 11.9758 12 12.447 12 12.999V29.001C12 29.553 12.1952 30.0242 12.5855 30.4145C12.9758 30.8048 13.447 31 13.999 31H28.001C28.553 31 29.0242 30.8048 29.4145 30.4145C29.8048 30.0242 30 29.553 30 29.001V12.999C30 12.447 29.8048 11.9758 29.4145 11.5855C29.0242 11.1952 28.553 11 28.001 11ZM14 13V29H28V13H14Z" fill="#1E2022"/>
<path fill-rule="evenodd" clip-rule="evenodd" d="M18.0604 18L20.2499 20.1894V13H21.7499V20.1894L23.9393 18L24.4696 17.4697L25.5302 18.5303L20.9999 23.0606L16.4696 18.5303L17.5302 17.4697L18.0604 18Z" fill="#1E2022"/>
</svg>
