<svg width="24" height="24" viewBox="0 0 24 24" fill="none" xmlns="http://www.w3.org/2000/svg">
<path fill-rule="evenodd" clip-rule="evenodd" d="M12 1C10.696 1 9.59659 1.837 9.18359 3H5C3.895 3 3 3.895 3 5V19C3 20.105 3.895 21 5 21H19C20.105 21 21 20.105 21 19V5C21 3.895 20.105 3 19 3H14.8164C14.4034 1.837 13.304 1 12 1ZM12 3C12.552 3 13 3.448 13 4C13 4.552 12.552 5 12 5H19V19H5V5H12C11.448 5 11 4.552 11 4C11 3.448 11.448 3 12 3ZM15.293 8.29297L11 12.5859L8.70703 10.293L7.29297 11.707L11 15.4141L16.707 9.70703L15.293 8.29297Z" fill="#1E2022"/>
</svg>
